<?xml version="1.0" standalone="no"?>
<!DOCTYPE svg PUBLIC "-//W3C//DTD SVG 1.1//EN" "http://www.w3.org/Graphics/SVG/1.1/DTD/svg11.dtd" >
<svg xmlns="http://www.w3.org/2000/svg">
<metadata></metadata>
<defs>
<font id="genevaregular" horiz-adv-x="1365" >
<font-face units-per-em="2048" ascent="1638" descent="-410" />
<missing-glyph horiz-adv-x="683" />
<glyph horiz-adv-x="0" />
<glyph horiz-adv-x="682" />
<glyph horiz-adv-x="0" />
<glyph unicode="&#x9;" horiz-adv-x="683" />
<glyph horiz-adv-x="0" />
<glyph unicode=" "  horiz-adv-x="683" />
<glyph unicode="&#x09;" horiz-adv-x="683" />
<glyph unicode="&#xa0;" horiz-adv-x="683" />
<glyph unicode="!" horiz-adv-x="621" d="M405 0h-187v186h187v-186zM389 388h-153l-50 1164h248z" />
<glyph unicode="&#x22;" horiz-adv-x="1024" d="M363 993h-128l-49 621h218zM794 993h-127l-42 621h213z" />
<glyph unicode="#" d="M288 0h-147l109 411h-188v140h226l112 426h-338v140h379l117 435h144l-115 -435h378l117 435h149l-120 -435h192v-140h-233l-113 -426h346v-140h-381l-112 -411h-148l113 411h-375zM438 551h376l115 426h-378z" />
<glyph unicode="$" d="M783 -155h-155v155q-277 16 -377 131t-100 255v10h202v-10q0 -90 51.5 -147.5t223.5 -78.5v538l-62 24q-215 87 -288 182.5t-73 229.5q0 106 45.5 193.5t134 144.5t243.5 76v159h155v-159q222 -16 299 -106t77 -191v-10h-201v10q0 55 -44.5 90.5t-130.5 49.5v-547l85 -30 q101 -39 183.5 -95.5t114.5 -129t32 -151.5q0 -98 -46 -193t-131 -159t-238 -86v-155zM628 901v492q-122 -21 -175.5 -92.5t-53.5 -161.5q0 -73 40.5 -123.5t149.5 -99.5zM783 642v-477q90 11 132.5 45.5t65.5 88.5t23 112q0 73 -39.5 123t-133.5 90z" />
<glyph unicode="%" horiz-adv-x="1854" d="M62 1086q0 214 100.5 340t248.5 126t248.5 -126t100.5 -340t-100.5 -339.5t-248.5 -125.5t-248.5 125.5t-100.5 339.5zM233 1086q0 -141 48.5 -233.5t129.5 -92.5q79 0 129 92.5t50 233.5t-50 233.5t-130 92.5t-128.5 -92.5t-48.5 -233.5zM275 0l1103 1552h177 l-1086 -1552h-194zM1094 465q0 214 100.5 340t248.5 126t248.5 -125.5t100.5 -340.5q0 -214 -100.5 -339.5t-248.5 -125.5t-248.5 125.5t-100.5 339.5zM1264 465q0 -142 49.5 -233.5t129.5 -91.5t129 91.5t49 233.5q0 141 -49 233.5t-129 92.5t-129.5 -92.5t-49.5 -233.5z " />
<glyph unicode="&#x26;" horiz-adv-x="1489" d="M1007 126q-100 -90 -201 -131.5t-223 -41.5q-153 0 -264.5 62.5t-176 174.5t-64.5 238q0 159 104.5 300t268.5 225q-11 18 -16 26q-68 107 -87 150t-28 80.5t-9 71.5q0 79 48 157t130 119t187 41q151 0 238 -79.5t87 -186.5q0 -122 -85.5 -238t-217.5 -192 q168 -288 342 -510q51 75 76 165.5t25 264.5v55h186v-24q0 -352 -186 -588q80 -100 248 -265h-270q-37 37 -74 81zM618 1042q105 59 158.5 137t53.5 136q0 32 -20.5 66.5t-62 53t-80.5 18.5q-78 0 -117.5 -52t-39.5 -106q0 -27 8.5 -59.5t21.5 -63t59 -101.5q6 -9 19 -29z M531 819q-123 -64 -191 -169t-68 -215q0 -90 43.5 -165t126.5 -118t161 -43q54 0 126 23t183 117q-68 84 -181 247t-200 323z" />
<glyph unicode="'" horiz-adv-x="621" d="M379 993h-134l-74 621h279z" />
<glyph unicode="(" horiz-adv-x="915" d="M783 1645q-174 -184 -250 -332.5t-116.5 -325.5t-40.5 -351t40.5 -351t116.5 -325.5t250 -331.5h-155q-129 112 -240.5 286t-160.5 358t-49 364t49 364t160.5 358t240.5 287h155z" />
<glyph unicode=")" horiz-adv-x="915" d="M132 -372q174 183 250 331.5t116.5 325.5t40.5 351t-40.5 351t-116.5 326t-250 332h155q129 -113 240.5 -287t160.5 -358t49 -364t-49 -364t-160.5 -358t-240.5 -286h-155z" />
<glyph unicode="*" horiz-adv-x="1040" d="M519 1061l-178 -316l-127 85l202 308l-338 68l40 148l340 -102l-17 346h156l-17 -346l340 102l40 -148l-338 -68l202 -308l-127 -85z" />
<glyph unicode="+" d="M1241 636v-155h-481v-481h-155v481h-481v155h481v481h155v-481h481z" />
<glyph unicode="," horiz-adv-x="621" d="M178 -372v120q48 28 73.5 68.5t38.5 84.5t13 99h-125v264h264v-164q0 -148 -28.5 -225.5t-86.5 -142.5t-149 -104z" />
<glyph unicode="-" horiz-adv-x="776" d="M78 551v155h621v-155h-621z" />
<glyph unicode="." horiz-adv-x="621" d="M442 0h-264v264h264v-264z" />
<glyph unicode="/" horiz-adv-x="1102" d="M225 -47h-178l834 1645h174z" />
<glyph unicode="0" d="M682 -47q-253 0 -409.5 221.5t-156.5 601.5t156.5 601t409.5 221q254 0 410.5 -221t156.5 -601t-156.5 -601.5t-410.5 -221.5zM682 109q197 0 285 202.5t88 464.5q0 261 -88 464t-285 203q-196 0 -284 -203t-88 -464q0 -262 88 -464.5t284 -202.5z" />
<glyph unicode="1" d="M617 0v1359l-314 -125v173l314 145h186v-1552h-186z" />
<glyph unicode="2" d="M178 0v161q0 126 78 274.5t262 290.5l105 81q210 162 266.5 242t56.5 167q0 89 -75 158t-216 69q-128 0 -190 -49.5t-62 -111.5v-10h-186v10q0 82 55.5 155t150 117t238.5 44q263 0 375 -111.5t112 -267.5q0 -83 -35 -167t-138.5 -175.5t-168.5 -136.5l-76 -52 q-358 -246 -358 -479v-38h807v-171h-1001z" />
<glyph unicode="3" d="M396 776v155h116q136 0 213 43t122 107.5t45 144.5q0 101 -74 159t-196 58q-70 0 -131 -18t-93.5 -61t-32.5 -90v-10h-178v10q0 122 103 223t342 101q227 0 341 -97t114 -250q0 -84 -33 -156.5t-97.5 -129.5t-185.5 -92q189 -54 283 -160.5t94 -265.5 q0 -187 -131.5 -340.5t-398.5 -153.5q-233 0 -340 99.5t-107 224.5v10h186v-10q0 -84 78.5 -126t201.5 -42q96 0 169 35.5t111 115.5t38 174q0 145 -114.5 243.5t-350.5 98.5h-94z" />
<glyph unicode="4" d="M1040 0h-186v473h-745v155l745 924h186v-924h217v-155h-217v-473zM854 628v678l-540 -678h540z" />
<glyph unicode="5" d="M303 799v753h799v-171h-628v-419h47q241 0 373 -59.5t201 -167t69 -260.5q0 -203 -126 -362.5t-384 -159.5q-205 0 -328.5 90.5t-123.5 218.5v10h186v-10q0 -67 71 -110.5t192 -43.5q163 0 241 105.5t78 236.5q0 148 -104 248.5t-421 100.5h-142z" />
<glyph unicode="6" d="M368 724q68 89 134 134t132 66.5t143 21.5q200 0 320.5 -142.5t120.5 -345.5q0 -142 -62.5 -258t-174 -181.5t-243.5 -65.5q-153 0 -287.5 90.5t-203.5 272.5t-69 450q0 380 155.5 606t446.5 226q198 0 298.5 -87t100.5 -198v-10h-186v10q0 48 -52.5 89t-157.5 41 q-123 0 -216 -74t-146.5 -242.5t-53.5 -347.5zM738 109q122 0 204 101.5t82 253.5q0 151 -86.5 239t-210.5 88q-137 0 -223 -100.5t-86 -239.5q0 -92 42.5 -174.5t116.5 -125t161 -42.5z" />
<glyph unicode="7" d="M558 0h-201v67q0 163 46.5 329.5t243 458t332.5 478.5l35 48h-859v171h1047v-171q-23 -34 -26 -38l-143 -192q-135 -182 -277.5 -443t-170 -396t-27.5 -235v-77z" />
<glyph unicode="8" d="M1214 423q0 -121 -66 -237t-178.5 -174.5t-287.5 -58.5q-174 0 -286.5 58.5t-178.5 174.5t-66 237q0 129 74.5 247t226.5 186q-119 59 -179 145t-60 198q0 109 59.5 205t173 145t236.5 49q124 0 237.5 -49.5t173 -145t59.5 -204.5q0 -112 -60 -198t-180 -145 q152 -68 227 -186t75 -247zM682 931q120 0 198 77t78 181q0 114 -83.5 184t-192.5 70q-108 0 -191.5 -70t-83.5 -184q0 -104 77.5 -181t197.5 -77zM682 776q-88 0 -166.5 -44t-124.5 -127t-46 -170q0 -84 43.5 -164t124 -121t169.5 -41q90 0 170.5 41t124 121t43.5 164 q0 87 -46 170t-125 127t-167 44z" />
<glyph unicode="9" d="M997 827q-68 -89 -134.5 -133.5t-132.5 -66.5t-142 -22q-201 0 -321 143t-120 345q0 143 62.5 258.5t174 181t243.5 65.5q153 0 287.5 -90.5t203.5 -272t69 -449.5q0 -381 -156 -607t-447 -226q-198 0 -298 87t-100 198v10h186v-10q0 -47 52 -88.5t157 -41.5 q124 0 216.5 74t146.5 242.5t54 347.5zM626 1443q-121 0 -203 -101.5t-82 -253.5t86.5 -240t210.5 -88q136 0 222 101t86 240q0 91 -42 174t-116.5 125.5t-161.5 42.5z" />
<glyph unicode=":" horiz-adv-x="621" d="M442 0h-264v264h264v-264zM442 853h-264v264h264v-264z" />
<glyph unicode=";" horiz-adv-x="621" d="M178 -372v120q48 28 73.5 68.5t38.5 84.5t13 99h-125v264h264v-164q0 -148 -28.5 -225.5t-86.5 -142.5t-149 -104zM442 853h-264v264h264v-264z" />
<glyph unicode="&#x3c;" d="M1241 1117v-173l-770 -389l770 -382v-173l-1117 555z" />
<glyph unicode="=" d="M1241 807v-155h-1117v155h1117zM1241 465v-155h-1117v155h1117z" />
<glyph unicode="&#x3e;" d="M124 0v178l770 389l-770 382v168l1117 -550z" />
<glyph unicode="?" horiz-adv-x="1164" d="M589 396h-186v94q0 163 51.5 266.5t110.5 166.5l78 85q77 84 109 136t32 102q0 85 -76.5 141t-188.5 56q-94 0 -147.5 -35t-53.5 -110v-10h-194v10q0 70 53 143.5t150.5 115t211.5 41.5q120 0 224 -46t159.5 -124.5t55.5 -166.5q0 -48 -23 -121t-137 -179l-71 -66 q-69 -65 -113.5 -137t-44.5 -226v-136zM589 0h-186v186h186v-186z" />
<glyph unicode="@" horiz-adv-x="1784" d="M1261 202v-156q-177 -93 -373 -93q-214 0 -394 104t-275 299.5t-95 420.5q0 226 95 419t271.5 297.5t426.5 104.5q232 0 396 -92.5t255.5 -253.5t91.5 -356q0 -141 -51 -248t-140.5 -168t-194.5 -61q-89 0 -163 46t-90 152q-55 -84 -125.5 -133.5t-141.5 -49.5 q-74 0 -141.5 44.5t-101 121t-33.5 166.5q0 117 59 230.5t155.5 163.5t288.5 50h195v-434q0 -138 38 -185.5t97 -47.5q87 0 154.5 90.5t67.5 245.5q0 176 -80 311t-225.5 209.5t-316.5 74.5q-184 0 -337.5 -84t-233.5 -247t-80 -354q0 -186 76 -361.5t234.5 -262.5 t315.5 -87q188 0 375 124zM1021 1086h-63q-84 0 -125 -11.5t-74 -38.5q-59 -47 -85 -115t-26 -155q0 -97 38 -136.5t82 -39.5q50 0 106 38.5t147 173.5v284z" />
<glyph unicode="A" horiz-adv-x="1489" d="M218 0h-187l636 1552h204l587 -1552h-218l-161 427h-685zM455 582h564l-272 721z" />
<glyph unicode="B" horiz-adv-x="1303" d="M845 816q184 -45 266.5 -151.5t82.5 -240.5q0 -111 -57 -209t-162 -156.5t-363 -58.5h-465v1552h412q282 0 378.5 -40.5t145.5 -119.5t49 -175q0 -107 -62 -212.5t-225 -188.5zM349 877h194q150 0 224.5 40t119 114.5t44.5 153.5q0 87 -69.5 149t-250.5 62h-262v-519z M349 155h285q202 0 276.5 75.5t74.5 178.5q0 83 -48 153t-142.5 114.5t-295.5 44.5h-150v-566z" />
<glyph unicode="C" horiz-adv-x="1334" d="M1070 334h187v-10q0 -92 -63.5 -187t-172.5 -139.5t-256 -44.5q-296 0 -484 206t-188 617q0 409 187 616t486 207q146 0 255 -44.5t172.5 -141t63.5 -185.5v-10h-187v10q0 57 -35.5 109.5t-102 79t-159.5 26.5q-238 0 -354.5 -188t-116.5 -479q0 -294 117 -481t353 -187 q162 0 230 67t68 149v10z" />
<glyph unicode="D" horiz-adv-x="1435" d="M147 0v1552h429q313 0 458 -85t226.5 -259.5t81.5 -425.5q0 -235 -73.5 -407.5t-222.5 -273.5t-442 -101h-457zM349 171h238q213 0 321.5 62.5t166 196t57.5 335.5t-52.5 347.5t-160 214.5t-337.5 69h-233v-1225z" />
<glyph unicode="E" horiz-adv-x="1179" d="M147 0v1552h877v-171h-675v-489h589v-155h-589v-566h729v-171h-931z" />
<glyph unicode="F" horiz-adv-x="1133" d="M147 0v1552h877v-171h-675v-535h589v-156h-589v-690h-202z" />
<glyph unicode="G" horiz-adv-x="1381" d="M1257 71q-247 -118 -471 -118q-233 0 -377 92.5t-230 266.5t-86 446q0 307 81.5 477t229.5 266.5t351 96.5q139 0 253 -44t181.5 -133.5t67.5 -177.5v-10h-187v10q0 54 -41.5 100.5t-109 73t-153.5 26.5q-226 0 -345 -177t-119 -488q0 -310 122 -490t344 -180 q130 0 302 62v443h-349v155h536v-697z" />
<glyph unicode="H" horiz-adv-x="1412" d="M349 0h-202v1552h202v-691h713v691h202v-1552h-202v706h-713v-706z" />
<glyph unicode="I" horiz-adv-x="496" d="M349 0h-202v1552h202v-1552z" />
<glyph unicode="J" horiz-adv-x="1008" d="M39 264h202v-10q0 -43 23 -77t71.5 -51t107.5 -17q62 0 115.5 28.5t77.5 88t24 261.5v1065h201v-1069q0 -254 -54.5 -347.5t-134.5 -138t-218 -44.5q-227 0 -321 94t-94 207v10z" />
<glyph unicode="K" horiz-adv-x="1358" d="M349 0h-202v1552h202v-741l648 741h230l-641 -728l740 -824h-253l-724 811v-811z" />
<glyph unicode="L" horiz-adv-x="1195" d="M147 0v1552h202v-1381h814v-171h-1016z" />
<glyph unicode="M" horiz-adv-x="1614" d="M318 0h-171v1552h198l482 -1109l443 1109h196v-1552h-179v925l5 277h-5l-100 -278l-275 -691h-203l-299 694l-92 252h-5l5 -252v-927z" />
<glyph unicode="N" horiz-adv-x="1451" d="M333 0h-186v1552h200l709 -1103l65 -123l-4 122v1104h186v-1552h-198l-711 1108l-65 125l4 -125v-1108z" />
<glyph unicode="O" horiz-adv-x="1505" d="M752 -47q-291 0 -475 214t-184 609t184 608.5t475 213.5t475.5 -213.5t184.5 -608.5t-184.5 -609t-475.5 -214zM752 109q212 0 331 182.5t119 484.5q0 301 -119 484t-331 183q-211 0 -330.5 -183t-119.5 -484q0 -302 119.5 -484.5t330.5 -182.5z" />
<glyph unicode="P" horiz-adv-x="1195" d="M349 0h-202v1552h432q247 0 348.5 -50.5t153 -148t51.5 -226.5q0 -218 -148.5 -366t-442.5 -148h-192v-613zM349 768h136q268 0 353 103t85 247q0 125 -68.5 201.5t-271.5 76.5h-234v-628z" />
<glyph unicode="Q" horiz-adv-x="1505" d="M753 -52q-253 22 -382 122.5t-203.5 272t-74.5 432.5q0 396 184 609.5t476 213.5q291 0 475 -213.5t184 -607.5q0 -198 -43.5 -348.5t-144 -268t-278.5 -179.5q101 -88 215.5 -132.5t242.5 -44.5q100 0 194 34v-178q-95 -32 -199 -32q-148 0 -291 57t-355 263zM753 109 q211 0 330 182.5t119 484.5q0 301 -119 484t-330 183q-212 0 -331.5 -183t-119.5 -484q0 -302 119.5 -484.5t331.5 -182.5z" />
<glyph unicode="R" horiz-adv-x="1241" d="M349 0h-202v1552h480q177 0 266 -51t141 -147.5t52 -209.5q0 -91 -35 -174.5t-98.5 -151t-196.5 -120.5q50 -28 75 -53t61 -81t63 -105l247 -459h-231l-215 408q-78 148 -203 259h-204v-667zM349 822h197q125 0 189.5 38.5t102.5 112t38 157.5q0 73 -30 130.5t-88 96.5 t-197 39h-212v-574z" />
<glyph unicode="S" horiz-adv-x="1241" d="M109 349h202v-10q0 -129 91 -179.5t242 -50.5q132 0 221.5 77t89.5 203q0 102 -77 166.5t-234 128.5l-81 33q-165 68 -246.5 134.5t-121.5 147.5t-40 181q0 176 124.5 297t389.5 121q243 0 342 -90t99 -210v-10h-202v10q0 38 -30.5 75t-91.5 53.5t-134 16.5 q-149 0 -220.5 -74.5t-71.5 -169.5q0 -64 34 -120.5t93.5 -93.5t200.5 -99l95 -41q228 -99 304.5 -208t76.5 -235q0 -117 -62 -226.5t-172 -166t-293 -56.5q-174 0 -290.5 41.5t-177 136.5t-60.5 208v10z" />
<glyph unicode="T" horiz-adv-x="1311" d="M559 0v1396h-528v156h1249v-156h-520v-1396h-201z" />
<glyph unicode="U" d="M124 1552h202v-998q0 -218 42.5 -292.5t132.5 -113.5t201 -39q107 0 189.5 39t123 123.5t40.5 353.5v927h186v-979q0 -272 -62.5 -382t-180.5 -174t-297 -64q-166 0 -304 51t-205.5 158.5t-67.5 364.5v1025z" />
<glyph unicode="V" horiz-adv-x="1489" d="M1270 1552h188l-633 -1552h-203l-591 1552h220l492 -1301z" />
<glyph unicode="W" horiz-adv-x="1939" d="M635 0h-205l-352 1552h193l247 -1093l34 -187h9l34 187l284 1093h200l277 -1096l32 -184h9l33 184l255 1096h177l-361 -1552h-205l-287 1113l-37 190h-10l-35 -190z" />
<glyph unicode="X" horiz-adv-x="1249" d="M235 0h-204l497 788l-458 764h221l351 -586l373 586h201l-476 -748l478 -804h-217l-374 625z" />
<glyph unicode="Y" horiz-adv-x="1249" d="M727 0h-201v731l-503 821h235l388 -627l383 627h196l-498 -821v-731z" />
<glyph unicode="Z" horiz-adv-x="1179" d="M1086 186v-186h-1008v186l771 1195h-717v171h939v-171l-767 -1195h782z" />
<glyph unicode="[" horiz-adv-x="915" d="M737 -217v-155h-504v2017h504v-156h-333v-1706h333z" />
<glyph unicode="\" horiz-adv-x="1102" d="M225 1598l830 -1645h-174l-834 1645h178z" />
<glyph unicode="]" horiz-adv-x="915" d="M178 1489v156h504v-2017h-504v155h334v1706h-334z" />
<glyph unicode="^" d="M1241 434h-171l-387 776l-388 -776h-171l559 1118z" />
<glyph unicode="_" d="M62 -155v155h1241v-155h-1241z" />
<glyph unicode="`" horiz-adv-x="1210" d="M822 1288h-170l-342 326h216z" />
<glyph unicode="a" horiz-adv-x="1133" d="M836 0q-29 90 -29 155q-122 -121 -208.5 -153.5t-165.5 -32.5q-133 0 -228.5 81.5t-95.5 224.5q0 162 134.5 250t463.5 152l100 19v126q0 103 -69 144.5t-166 41.5q-116 0 -181 -51t-65 -119v-16h-202v15q0 74 62.5 153t166 119t226.5 40q122 0 222 -38t146 -102.5 t46 -242.5v-434q0 -71 4 -149q3 -79 35 -183h-196zM807 564l-56 -14q-283 -69 -362 -131t-79 -148q0 -44 23.5 -82t69.5 -59t91 -21q78 0 153.5 45.5t117.5 121.5t42 177v111z" />
<glyph unicode="b" horiz-adv-x="1249" d="M318 0h-186q5 55 9 134q3 79 5 129t2 67v1284h186v-691q61 95 114.5 138t117 65t133.5 22q127 0 233 -69.5t165 -207.5t59 -310q0 -255 -123 -423.5t-343 -168.5q-72 0 -135 20.5t-112.5 61t-108.5 144.5l-6 -81q-4 -67 -10 -114zM334 558q0 -190 82 -312t230 -122 q136 0 226 108t90 323q0 251 -92 348.5t-219 97.5q-89 0 -165.5 -53.5t-114 -159t-37.5 -230.5z" />
<glyph unicode="c" horiz-adv-x="1117" d="M845 287h187v-10q0 -75 -56.5 -151t-148 -116.5t-220.5 -40.5q-247 0 -380.5 156.5t-133.5 433.5q0 276 133.5 432.5t380.5 156.5q129 0 220.5 -40.5t148 -111t56.5 -156.5v-10h-187v10v6q0 57 -53 101q-57 46 -175 46q-140 0 -235 -103t-95 -331q0 -229 95 -332 t235 -103q118 0 173 46t55 107v10z" />
<glyph unicode="d" horiz-adv-x="1233" d="M915 1614h186v-1614h-186v194q-57 -108 -111 -150t-121.5 -58.5t-133.5 -16.5q-126 0 -232 69.5t-165 207.5t-59 310q0 255 123 423.5t343 168.5q72 0 135 -20.5t112.5 -61t108.5 -144.5v692zM915 559q0 190 -82 312t-230 122q-136 0 -226 -108t-90 -323 q0 -251 87 -348.5t224 -97.5q89 0 165.5 54t114 159t37.5 230z" />
<glyph unicode="e" horiz-adv-x="1179" d="M877 287h186v-10q0 -74 -59 -151t-156 -117t-223 -40q-255 0 -393.5 165t-138.5 417q0 258 146.5 427.5t377.5 169.5q127 0 230 -55t163 -171.5t60 -324.5v-62h-793q0 -179 96.5 -295t267.5 -116q123 0 179.5 47.5t56.5 105.5v10zM289 675h603v22q0 78 -37.5 151.5 t-103.5 109t-154 35.5q-104 0 -192 -83.5t-116 -234.5z" />
<glyph unicode="f" horiz-adv-x="799" d="M434 0h-186v962h-163v155h163v52q0 243 102.5 344t267.5 101q62 0 157 -14v-152q-78 10 -125 10q-90 0 -153 -44t-63 -210v-87h326v-155h-326v-962z" />
<glyph unicode="g" horiz-adv-x="1249" d="M915 236q-57 -118 -148 -177t-216 -59q-199 0 -328.5 156.5t-129.5 411.5q0 168 58 306t163 206t246 68q105 0 188 -41.5t167 -168.5v179h186v-913q0 -344 -72 -454t-182.5 -163t-259.5 -53q-138 0 -247.5 41t-166.5 112.5t-57 148.5v17h186v-16q0 -74 80 -118.5 t203 -44.5q100 0 171.5 34.5t115 112t43.5 281.5v134zM915 592q0 179 -92 290t-220 111q-136 0 -226 -112t-90 -315q0 -128 36 -224t112.5 -145.5t163.5 -49.5q141 0 228.5 124.5t87.5 320.5z" />
<glyph unicode="h" horiz-adv-x="1195" d="M333 0h-186v1614h186v-690q59 91 114.5 135t116 66.5t134.5 22.5q105 0 188.5 -43t129.5 -126.5t46 -267.5v-711h-186v631q0 150 -20 212.5t-76 98t-128 35.5q-82 0 -156 -48t-118.5 -134t-44.5 -246v-549z" />
<glyph unicode="i" horiz-adv-x="481" d="M147 1117h186v-1117h-186v1117zM147 1365v187h186v-187h-186z" />
<glyph unicode="j" horiz-adv-x="566" d="M225 1117h187v-1117q0 -169 -40.5 -252t-130.5 -132.5t-195 -49.5q-75 0 -162 17v148l40 -4q55 -6 88 -6q94 0 153.5 47.5t59.5 231.5v1117zM225 1373v179h187v-179h-187z" />
<glyph unicode="k" horiz-adv-x="1102" d="M341 0h-194v1614h194v-1029l496 532h215l-484 -519l502 -598h-233l-496 585v-585z" />
<glyph unicode="l" horiz-adv-x="481" d="M333 0h-186v1614h186v-1614z" />
<glyph unicode="m" horiz-adv-x="1831" d="M333 0h-186v1117h186v-202q57 101 108.5 145t112.5 66t130 22t132 -21.5t109 -64.5t91 -147q57 97 112.5 142.5t114 68t124.5 22.5q95 0 172 -44.5t118.5 -126.5t41.5 -279v-698h-187v621q0 197 -23.5 249t-65 79.5t-100.5 27.5q-83 0 -153 -51.5t-112 -138.5t-42 -244 v-543h-186v621q0 197 -21.5 249t-68.5 80t-101 28q-76 0 -149.5 -53.5t-115 -142t-41.5 -239.5v-543z" />
<glyph unicode="n" horiz-adv-x="1195" d="M333 0h-186v1117h186v-193q59 91 114.5 135t116 66.5t134.5 22.5q105 0 188.5 -43t129.5 -126.5t46 -267.5v-711h-186v631q0 150 -20 212.5t-78 98t-126 35.5q-82 0 -156 -48t-118.5 -134t-44.5 -246v-549z" />
<glyph unicode="o" horiz-adv-x="1241" d="M621 -31q-219 0 -373.5 148.5t-154.5 441.5q0 292 154.5 440.5t373.5 148.5q218 0 372.5 -148.5t154.5 -440.5q0 -293 -154.5 -441.5t-372.5 -148.5zM621 124q150 0 241.5 119.5t91.5 315.5q0 195 -91.5 314.5t-241.5 119.5q-151 0 -242.5 -119.5t-91.5 -314.5 q0 -196 91.5 -315.5t242.5 -119.5z" />
<glyph unicode="p" horiz-adv-x="1233" d="M318 -434h-186v1551h186v-194q58 99 110.5 140t118.5 63t136 22q128 0 234 -69.5t164.5 -207.5t58.5 -310q0 -255 -122.5 -423.5t-343.5 -168.5q-71 0 -134.5 20.5t-112.5 61t-109 144.5v-629zM318 558q0 -190 82 -312t231 -122q136 0 226 108t90 323q0 251 -95 348.5 t-217 97.5q-88 0 -164.5 -53.5t-114.5 -159t-38 -230.5z" />
<glyph unicode="q" horiz-adv-x="1233" d="M915 1117h186v-1551h-186v628q-58 -99 -110 -140t-118.5 -63t-136.5 -22q-127 0 -233 69.5t-165 207.5t-59 310q0 255 123 423.5t343 168.5q72 0 135 -20.5t112.5 -61t108.5 -144.5v195zM915 559q0 190 -82 312t-230 122q-136 0 -226 -108t-90 -323q0 -251 95 -348.5 t216 -97.5q89 0 165.5 54t114 159t37.5 230z" />
<glyph unicode="r" horiz-adv-x="791" d="M333 0h-186v1117h186v-197q46 85 100.5 132t116 71.5t125.5 24.5q58 0 100 -17v-193q-66 32 -140 32q-105 0 -203.5 -92t-98.5 -326v-552z" />
<glyph unicode="s" horiz-adv-x="1043" d="M78 295h186v-4q0 -72 55 -119.5t186 -47.5q115 0 186.5 56t71.5 132q0 103 -140 146l-95 29l-63 20l-129 40q-221 81 -221 269q0 132 107 232t318 100q208 0 296 -85.5t88 -189.5v-4h-187v4q0 56 -56.5 88t-150.5 32q-112 0 -171.5 -46.5t-59.5 -114.5q0 -52 38.5 -84.5 t129.5 -58.5l90 -25l65 -19q136 -39 169.5 -55t67.5 -41q47 -36 69.5 -87t22.5 -119q0 -158 -113.5 -266t-331.5 -108q-138 0 -229 41t-145 113.5t-54 167.5v4z" />
<glyph unicode="t" horiz-adv-x="908" d="M830 158v-156q-136 -33 -208 -33q-104 0 -187.5 42t-127 122t-43.5 255v574h-194v155h194v264h186v-264h326v-155h-326v-521q0 -148 23 -205.5t72.5 -84.5t118.5 -27q55 0 166 34z" />
<glyph unicode="u" horiz-adv-x="1195" d="M861 1117h186v-1117h-186v195q-58 -90 -114 -135t-115 -68t-129 -23q-155 0 -263 87.5t-108 352.5v708h186v-630q0 -245 65 -296t161 -51q83 0 156.5 48.5t117 136t43.5 243.5v549z" />
<glyph unicode="v" horiz-adv-x="1156" d="M478 0l-455 1117h200l358 -876l366 876h185l-468 -1117h-186z" />
<glyph unicode="w" horiz-adv-x="1598" d="M350 0l-319 1117h195l197 -695l26 -166h21l29 166l199 695h187l222 -693l38 -168h20l29 168l197 693h176l-319 -1117h-188l-230 730l-31 162h-16l-33 -162l-211 -730h-189z" />
<glyph unicode="x" horiz-adv-x="1086" d="M248 0h-194l388 565l-365 552h214l260 -393l269 393h192l-365 -533l384 -584h-215l-279 424z" />
<glyph unicode="y" horiz-adv-x="1171" d="M511 48l-480 1069h206l374 -830l350 830h187l-471 -1118q-95 -226 -159 -299.5t-135.5 -103.5t-190.5 -30h-140v155h105q77 0 135 20.5t96.5 65.5t103.5 198z" />
<glyph unicode="z" horiz-adv-x="1133" d="M1024 155v-155h-908v155l663 807h-647v155h868v-155l-651 -807h675z" />
<glyph unicode="{" horiz-adv-x="923" d="M209 714h53q97 0 130.5 51t33.5 119q0 81 -22 172l-24 103q-24 101 -24 191q0 133 94 214t225 81h15v-156h-19q-55 0 -99.5 -44t-44.5 -131q0 -29 5 -50l11 -49l22 -120q24 -135 24 -182q0 -79 -48.5 -158.5t-160.5 -118.5q112 -39 160.5 -118.5t48.5 -158.5 q0 -46 -24 -182l-22 -120l-11 -48q-5 -25 -5 -51q0 -86 44 -130.5t100 -44.5h19v-155h-15q-131 0 -225 80.5t-94 214.5q0 90 24 190l24 103q22 92 22 173q0 67 -33.5 118.5t-130.5 51.5h-53v155z" />
<glyph unicode="|" horiz-adv-x="504" d="M171 -47v1645h163v-1645h-163z" />
<glyph unicode="}" horiz-adv-x="923" d="M714 559h-53q-97 0 -130.5 -51.5t-33.5 -119.5q0 -80 21 -172l25 -103q24 -100 24 -190q0 -133 -94 -214t-225 -81h-15v155h19q55 0 99.5 44t44.5 132q0 28 -5 50l-11 48l-22 120q-24 136 -24 182q0 79 48.5 158.5t160.5 118.5q-112 39 -160.5 118.5t-48.5 159.5 q0 46 24 181l22 120l11 49q5 24 5 51q0 85 -44 129.5t-100 44.5h-19v156h15q131 0 225 -81t94 -215q0 -89 -24 -190l-25 -103q-21 -91 -21 -172q0 -68 33.5 -119t130.5 -51h53v-155z" />
<glyph unicode="~" d="M124 403v18q0 131 77.5 227.5t208.5 96.5q33 0 64.5 -6.5t71.5 -22t120 -60.5l121 -67q111 -61 181 -61q74 0 109.5 53.5t35.5 116.5v16h128v-16q0 -167 -94.5 -246.5t-200.5 -79.5q-99 0 -262 93l-102 59q-116 66 -187 66q-40 0 -74.5 -21t-55.5 -67t-21 -81v-18h-120z " />
<glyph unicode="&#xa0;" />
<glyph unicode="&#xa1;" horiz-adv-x="621" d="M216 1117h186v-186h-186v186zM232 729h152l50 -1163h-248z" />
<glyph unicode="&#xa2;" d="M772 0h-155v189q-165 31 -248 105.5t-131 198.5t-48 282q0 149 44 270.5t136.5 208t246.5 110.5v188h155v-188q140 -20 208.5 -62t108.5 -108t40 -129v-10h-187v10q0 109 -170 142v-866q94 19 132 66t38 87v10h187v-10q0 -87 -82.5 -182t-274.5 -123v-189zM617 1204 q-92 -31 -137 -87t-70.5 -142t-25.5 -201q0 -113 24.5 -194.5t72 -139t136.5 -89.5v853z" />
<glyph unicode="&#xa3;" d="M163 0v171q136 67 184.5 172t80.5 275l29 150h-209v155h241l47 239q34 175 83 258t126.5 130.5t183.5 47.5q45 0 91 -8t128 -51v-159q-114 47 -197 47q-68 0 -111 -29t-68.5 -93t-56.5 -213l-35 -169h329v-155h-360l-27 -134q-19 -94 -50.5 -191t-65.5 -151t-111 -121 h753v-171h-985z" />
<glyph unicode="&#xa4;" d="M380 355l-185 -185l-110 110l185 184q-69 110 -84 173t-15 130q0 68 15 131t84 173l-185 185l110 110l185 -186q107 67 169.5 83.5t133.5 16.5t133.5 -16.5t169.5 -83.5l185 186l110 -110l-185 -185q69 -110 84 -173t15 -131q0 -67 -15 -130t-84 -173l185 -184l-110 -110 l-185 185q-110 -69 -172.5 -84t-130.5 -15t-130.5 15t-172.5 84zM683 411q148 0 252.5 105t104.5 251q0 96 -47.5 179t-132 131t-177.5 48t-177.5 -48t-132 -131t-47.5 -179q0 -146 104.5 -251t252.5 -105z" />
<glyph unicode="&#xa5;" d="M790 0h-186v256h-388v140h388v186h-388v147h375l-517 823h209l428 -673l401 673h180l-490 -823h368v-147h-380v-186h380v-140h-380v-256z" />
<glyph unicode="&#xa6;" horiz-adv-x="504" d="M171 -47v730h163v-730h-163zM171 869v729h163v-729h-163z" />
<glyph unicode="&#xa7;" d="M1008 280q110 -77 139 -139t29 -135q0 -107 -56 -189.5t-160.5 -135.5t-282.5 -53q-328 0 -434.5 121t-106.5 264v10h202v-10q0 -75 37 -126.5t120.5 -77.5t181.5 -26q159 0 234.5 66.5t75.5 143.5q0 35 -15 65t-46 55q-62 49 -253 141l-215 104q-156 75 -208 154.5 t-52 161.5q0 75 44.5 152.5t109.5 123.5q-77 59 -115.5 128.5t-38.5 149.5q0 162 134.5 266t376.5 104q236 0 335.5 -89t99.5 -211v-10h-201v10q0 74 -74.5 109.5t-188.5 35.5q-126 0 -207 -50t-81 -139q0 -71 59.5 -126.5t193.5 -118.5l185 -86q191 -89 268.5 -169 t77.5 -193q0 -149 -168 -281zM890 355q92 74 92 158q0 61 -43 114.5t-194 126.5l-264 126q-65 -56 -77 -99t-12 -79q0 -56 33.5 -97.5t174.5 -109.5z" />
<glyph unicode="&#xa8;" horiz-adv-x="1210" d="M295 1288v186h186v-186h-186zM729 1288v186h187v-186h-187z" />
<glyph unicode="&#xa9;" horiz-adv-x="1800" d="M1232 438v-138q-115 -52 -280 -52q-152 0 -260.5 63.5t-171 194t-62.5 280.5q0 204 119 360.5t364 156.5q154 0 291 -49v-139q-136 64 -265 64q-146 0 -242 -95t-96 -302q0 -203 97 -302.5t254 -99.5q112 0 252 58zM900 -47q-216 0 -405 106t-303 299t-114 417 q0 220 109.5 412t302.5 301.5t410 109.5q218 0 410.5 -109.5t302.5 -301.5t110 -412q0 -224 -114 -417t-303.5 -299t-405.5 -106zM900 78q184 0 344.5 89.5t257.5 253.5q96 161 96 350v4q0 187 -93 350t-256.5 256t-348.5 93t-348.5 -93t-256.5 -256t-93 -350 q0 -191 96.5 -354.5t257 -253t344.5 -89.5z" />
<glyph unicode="&#xaa;" horiz-adv-x="683" d="M500 905q-16 50 -18 82q-52 -50 -106.5 -75t-111.5 -25q-83 0 -142.5 50.5t-59.5 137.5q0 97 80 151.5t285 93.5l54 10v68q0 51 -33.5 76.5t-100.5 25.5q-65 0 -102 -27.5t-37 -72.5v-10h-137v10q0 53 38.5 99.5t102.5 73t140 26.5t138 -24t90 -64t28 -146v-256 q0 -121 28 -204h-136zM481 1236l-24 -6q-162 -39 -210.5 -74.5t-48.5 -82.5q0 -45 34.5 -66.5t68.5 -21.5q53 0 116.5 46t63.5 149v56z" />
<glyph unicode="&#xab;" horiz-adv-x="1094" d="M710 555l306 -431h-170l-327 357v155l335 357h162zM276 555l305 -431h-170l-326 357v155l335 357h161z" />
<glyph unicode="&#xac;" d="M1241 636v-481h-155v326h-962v155h1117z" />
<glyph unicode="&#xae;" horiz-adv-x="1800" d="M745 264h-160v1016h323q118 0 178.5 -34.5t95.5 -98.5t35 -139q0 -87 -49 -166t-150 -122q53 -33 113 -144l168 -312h-182l-139 265l-33 63q-56 99 -81 99h-119v-427zM745 813h111q110 0 153 58t43 128q0 43 -17.5 77.5t-51 57.5t-117.5 23h-121v-344zM900 -47 q-216 0 -405 106t-303 299t-114 417q0 220 109.5 412t302.5 301.5t410 109.5q218 0 410.5 -109.5t302.5 -301.5t110 -412q0 -224 -114 -417t-303.5 -299t-405.5 -106zM900 78q184 0 344.5 89.5t257.5 253.5q96 161 96 350v4q0 187 -93 350t-256.5 256t-348.5 93t-348.5 -93 t-256.5 -256t-93 -350q0 -191 96.5 -354.5t257 -253t344.5 -89.5z" />
<glyph unicode="&#xaf;" horiz-adv-x="1210" d="M326 1288v124h559v-124h-559z" />
<glyph unicode="&#xb0;" horiz-adv-x="698" d="M350 1055q-114 0 -193 80.5t-79 190.5q0 113 80.5 192.5t191.5 79.5t191 -79.5t80 -192.5q0 -110 -79 -190.5t-192 -80.5zM350 1148q75 0 126.5 54t51.5 124q0 73 -52.5 126t-125.5 53q-74 0 -126.5 -53t-52.5 -126q0 -70 51.5 -124t127.5 -54z" />
<glyph unicode="&#xb1;" d="M1241 946v-155h-481v-481h-155v481h-481v155h481v481h155v-481h481zM1241 155v-155h-1117v155h1117z" />
<glyph unicode="&#xb2;" horiz-adv-x="822" d="M85 644v116q0 65 48.5 158.5t158.5 174.5l63 47l59 45q93 71 111 106t18 69q0 46 -42 80t-119 34q-66 0 -100 -22t-34 -47v-24h-140v25q0 64 70 128t211 64q167 0 238 -70t71 -164q0 -50 -22.5 -101t-85 -104t-107.5 -83l-46 -30q-207 -137 -207 -264v-6h483v-132h-628z " />
<glyph unicode="&#xb3;" horiz-adv-x="822" d="M245 1094v124h72q78 0 120.5 22.5t68.5 56.5t27 70q0 40 -32 73.5t-112 33.5q-75 0 -109.5 -26t-34.5 -52v-23h-124v23q0 51 39.5 99.5t105.5 75.5t143 27q115 0 193 -55.5t78 -154.5q0 -56 -25 -108.5t-129 -111.5q127 -59 160 -119t33 -131q0 -115 -85 -206.5 t-255 -91.5q-118 0 -192 55t-74 140v23h132v-23q0 -22 28 -46t116 -24q105 0 143.5 55t38.5 117q0 70 -63 123.5t-202 53.5h-61z" />
<glyph unicode="&#xb4;" horiz-adv-x="1210" d="M310 1288l296 326h216l-342 -326h-170z" />
<glyph unicode="&#xb5;" horiz-adv-x="1210" d="M135 -372h-186l298 1489h186l-127 -635q-23 -114 -23 -171q0 -90 51 -130.5t124 -40.5q90 0 171.5 47t143.5 135t94 248l109 547h186l-223 -1117h-186l38 191q-114 -124 -208 -173t-183 -49q-112 0 -183 68z" />
<glyph unicode="&#xb6;" d="M1156 -372h-155v1768h-217v-1768h-155v1047q-233 0 -380.5 126t-147.5 303q0 117 64 228t185.5 165.5t361.5 54.5h607v-156h-163v-1768z" />
<glyph unicode="&#xb8;" horiz-adv-x="1210" d="M675 0l-73 -131q107 -21 140 -65.5t33 -92.5q0 -55 -44 -100.5t-138 -45.5q-83 0 -159 28v89q58 -31 119 -31q35 0 63 21t28 44q0 68 -186 87l109 197h108z" />
<glyph unicode="&#xb9;" horiz-adv-x="822" d="M360 644v781l-193 -73v133l193 90h140v-931h-140z" />
<glyph unicode="&#xba;" horiz-adv-x="760" d="M380 887q-131 0 -227.5 88.5t-96.5 266.5t96 267t228 89t228.5 -89t96.5 -267t-96.5 -266.5t-228.5 -88.5zM380 994q87 0 140 68.5t53 179.5q0 112 -52.5 180.5t-140.5 68.5q-87 0 -139.5 -68.5t-52.5 -180.5q0 -111 52.5 -179.5t139.5 -68.5z" />
<glyph unicode="&#xbb;" horiz-adv-x="1094" d="M384 562l-306 431h170l326 -357v-155l-334 -357h-162zM818 562l-306 431h171l326 -357v-155l-335 -357h-162z" />
<glyph unicode="&#xbc;" horiz-adv-x="1854" d="M313 613v781l-193 -73v133l193 90h140v-931h-140zM178 -78l1182 1645h176l-1159 -1645h-199zM1602 -31h-140v271h-450v114l458 546h132v-535h132v-125h-132v-271zM1462 365v333l-277 -333h277z" />
<glyph unicode="&#xbd;" horiz-adv-x="1854" d="M282 644v781l-193 -73v133l193 90h140v-931h-140zM147 -47l1182 1645h176l-1159 -1645h-199zM1136 0v116q0 65 48.5 158.5t158.5 174.5l64 47l59 45q92 71 110 106t18 69q0 46 -42 80t-118 34q-67 0 -101 -21.5t-34 -47.5v-24h-139v25q0 64 69.5 128t210.5 64 q167 0 238 -70t71 -163q0 -51 -22 -102t-85 -104t-108 -83l-46 -30q-207 -137 -207 -264v-6h484v-132h-629z" />
<glyph unicode="&#xbe;" horiz-adv-x="1854" d="M206 1094v124h72q78 0 120.5 22.5t68.5 56.5t26 70q0 40 -32 73.5t-111 33.5q-75 0 -109.5 -26t-34.5 -52v-23h-124v23q0 51 39.5 99t104.5 75.5t143 27.5q116 0 193.5 -55.5t77.5 -154.5q0 -56 -24.5 -108.5t-129.5 -111.5q127 -59 160 -119t33 -131 q0 -115 -84.5 -206.5t-254.5 -91.5q-118 0 -192 55t-74 140v23h132v-23q0 -22 28 -46t116 -24q104 0 143 55t39 117q0 70 -63.5 123.5t-202.5 53.5h-60zM226 -78l1181 1645h176l-1159 -1645h-198zM1649 -31h-140v271h-450v114l458 546h132v-535h132v-125h-132v-271z M1509 365v333l-277 -333h277z" />
<glyph unicode="&#xbf;" horiz-adv-x="1164" d="M575 721h186v-94q0 -163 -51.5 -266.5t-109.5 -166.5l-79 -85q-77 -84 -109 -136t-32 -102q0 -85 76.5 -141t188.5 -56q94 0 147.5 35t53.5 110v10h194v-10q0 -70 -53 -143.5t-150 -115t-212 -41.5q-120 0 -224 46t-159.5 125t-55.5 166q0 48 23 121t137 180l71 65 q69 65 113.5 137t44.5 227v135zM575 1117h186v-186h-186v186z" />
<glyph unicode="&#xc0;" horiz-adv-x="1489" d="M218 0h-187l636 1552h204l587 -1552h-218l-161 427h-685zM455 582h564l-272 721zM1062 1722h-240l-396 202h326z" />
<glyph unicode="&#xc1;" horiz-adv-x="1489" d="M218 0h-187l636 1552h204l587 -1552h-218l-161 427h-685zM455 582h564l-272 721zM488 1722l311 202h326l-396 -202h-241z" />
<glyph unicode="&#xc2;" horiz-adv-x="1489" d="M218 0h-187l636 1552h204l587 -1552h-218l-161 427h-685zM455 582h564l-272 721zM746 1784l-139 -62h-217l294 202h124l295 -202h-217z" />
<glyph unicode="&#xc3;" horiz-adv-x="1489" d="M218 0h-187l636 1552h204l587 -1552h-218l-161 427h-685zM455 582h564l-272 721zM501 1722h-123q9 68 44.5 115t74.5 67t90 20q62 0 128 -22l99 -33q61 -21 89 -21q30 0 50 13.5t36 62.5h123q-20 -108 -83.5 -155t-133.5 -47q-43 0 -133 34l-67 25l-25 9q-50 18 -80 18 q-19 0 -49.5 -14.5t-39.5 -71.5z" />
<glyph unicode="&#xc4;" horiz-adv-x="1489" d="M218 0h-187l636 1552h204l587 -1552h-218l-161 427h-685zM455 582h564l-272 721zM459 1722v186h186v-186h-186zM893 1722v186h187v-186h-187z" />
<glyph unicode="&#xc5;" horiz-adv-x="1489" d="M675 1707q0 -38 27 -65.5t66 -27.5q38 0 65.5 27.5t27.5 65.5t-27.5 65.5t-65.5 27.5q-39 0 -66 -28t-27 -65zM871 1552l587 -1552h-218l-161 427h-685l-176 -427h-187l636 1552q-42 30 -63.5 68.5t-21.5 86.5q0 75 54 130.5t132 55.5q76 0 131 -55t55 -131 q0 -46 -20.5 -85t-62.5 -70zM455 582h564l-272 721z" />
<glyph unicode="&#xc6;" horiz-adv-x="2032" d="M1001 0v427h-516l-280 -427h-205l1001 1552h876v-171h-675v-489h590v-155h-590v-566h730v-171h-931zM1001 582v645l-417 -645h417z" />
<glyph unicode="&#xc7;" horiz-adv-x="1334" d="M716 -131q107 -21 140 -65.5t33 -92.5q0 -55 -44 -100.5t-138 -45.5q-83 0 -159 28v89q58 -31 118 -31q36 0 63.5 21t27.5 44q0 68 -185 87l83 151q-192 22 -324.5 133.5t-192.5 261t-60 399.5q0 307 80 479.5t231 272t362 99.5q146 0 255 -44.5t172.5 -140t63.5 -186.5 v-10h-187v10q0 59 -35.5 110.5t-102 78t-159.5 26.5q-238 0 -354.5 -188t-116.5 -479q0 -294 117 -481t353 -187q162 0 230 67t68 149v10h187v-10q0 -82 -55 -172.5t-150 -139t-276 -58.5z" />
<glyph unicode="&#xc8;" horiz-adv-x="1179" d="M147 0v1552h877v-171h-675v-489h589v-155h-589v-566h729v-171h-931zM931 1722h-240l-396 202h326z" />
<glyph unicode="&#xc9;" horiz-adv-x="1179" d="M147 0v1552h877v-171h-675v-489h589v-155h-589v-566h729v-171h-931zM293 1722l311 202h326l-396 -202h-241z" />
<glyph unicode="&#xca;" horiz-adv-x="1179" d="M147 0v1552h877v-171h-675v-489h589v-155h-589v-566h729v-171h-931zM613 1784l-139 -62h-217l294 202h124l295 -202h-217z" />
<glyph unicode="&#xcb;" horiz-adv-x="1179" d="M147 0v1552h877v-171h-675v-489h589v-155h-589v-566h729v-171h-931zM303 1722v186h186v-186h-186zM737 1722v186h187v-186h-187z" />
<glyph unicode="&#xcc;" horiz-adv-x="497" d="M349 0h-202v1552h202v-1552zM566 1722h-240l-396 202h326z" />
<glyph unicode="&#xcd;" horiz-adv-x="495" d="M349 0h-202v1552h202v-1552zM-71 1722l311 202h326l-396 -202h-241z" />
<glyph unicode="&#xce;" horiz-adv-x="495" d="M349 0h-202v1552h202v-1552zM246 1784l-139 -62h-217l294 202h124l295 -202h-217z" />
<glyph unicode="&#xcf;" horiz-adv-x="497" d="M349 0h-202v1552h202v-1552zM-62 1722v186h186v-186h-186zM372 1722v186h187v-186h-187z" />
<glyph unicode="&#xd0;" horiz-adv-x="1435" d="M147 0v714h-186v155h186v683h429q314 0 459 -85t226 -259.5t81 -425.5q0 -235 -73.5 -407.5t-222 -273.5t-442.5 -101h-457zM349 171h238q213 0 321.5 62.5t166 196t57.5 335.5t-52.5 347.5t-160 214.5t-336.5 69h-234v-527h279v-155h-279v-543z" />
<glyph unicode="&#xd1;" horiz-adv-x="1451" d="M333 0h-186v1552h200l709 -1103l65 -123l-4 122v1104h186v-1552h-198l-711 1108l-65 125l4 -125v-1108zM480 1722h-123q9 68 44.5 115t74.5 67t90 20q62 0 128 -22l99 -33q61 -21 89 -21q30 0 50 13.5t36 62.5h123q-20 -108 -83.5 -155t-133.5 -47q-43 0 -133 34l-67 25 l-25 9q-50 18 -80 18q-19 0 -49.5 -14.5t-39.5 -71.5z" />
<glyph unicode="&#xd2;" horiz-adv-x="1505" d="M752 -47q-291 0 -475 214t-184 609t184 608.5t475 213.5t475.5 -213.5t184.5 -608.5t-184.5 -609t-475.5 -214zM752 109q212 0 331 182.5t119 484.5q0 301 -119 484t-331 183q-211 0 -330.5 -183t-119.5 -484q0 -302 119.5 -484.5t330.5 -182.5zM1070 1722h-240l-396 202 h326z" />
<glyph unicode="&#xd3;" horiz-adv-x="1505" d="M752 -47q-291 0 -475 214t-184 609t184 608.5t475 213.5t475.5 -213.5t184.5 -608.5t-184.5 -609t-475.5 -214zM752 109q212 0 331 182.5t119 484.5q0 301 -119 484t-331 183q-211 0 -330.5 -183t-119.5 -484q0 -302 119.5 -484.5t330.5 -182.5zM435 1722l311 202h326 l-396 -202h-241z" />
<glyph unicode="&#xd4;" horiz-adv-x="1505" d="M752 -47q-291 0 -475 214t-184 609t184 608.5t475 213.5t475.5 -213.5t184.5 -608.5t-184.5 -609t-475.5 -214zM752 109q212 0 331 182.5t119 484.5q0 301 -119 484t-331 183q-211 0 -330.5 -183t-119.5 -484q0 -302 119.5 -484.5t330.5 -182.5zM752 1784l-139 -62h-217 l294 202h124l295 -202h-217z" />
<glyph unicode="&#xd5;" horiz-adv-x="1505" d="M752 -47q-291 0 -475 214t-184 609t184 608.5t475 213.5t475.5 -213.5t184.5 -608.5t-184.5 -609t-475.5 -214zM752 109q212 0 331 182.5t119 484.5q0 301 -119 484t-331 183q-211 0 -330.5 -183t-119.5 -484q0 -302 119.5 -484.5t330.5 -182.5zM509 1722h-123 q9 68 44.5 115t74.5 67t90 20q62 0 128 -22l99 -33q61 -21 89 -21q30 0 50 13.5t36 62.5h123q-20 -108 -83.5 -155t-133.5 -47q-43 0 -133 34l-67 25l-25 9q-50 18 -80 18q-19 0 -49.5 -14.5t-39.5 -71.5z" />
<glyph unicode="&#xd6;" horiz-adv-x="1505" d="M752 -47q-291 0 -475 214t-184 609t184 608.5t475 213.5t475.5 -213.5t184.5 -608.5t-184.5 -609t-475.5 -214zM752 109q212 0 331 182.5t119 484.5q0 301 -119 484t-331 183q-211 0 -330.5 -183t-119.5 -484q0 -302 119.5 -484.5t330.5 -182.5zM442 1722v186h186v-186 h-186zM876 1722v186h187v-186h-187z" />
<glyph unicode="&#xd7;" d="M1241 108l-115 -108l-443 450l-456 -450l-103 115l445 444l-445 452l110 106l449 -447l438 447l120 -99l-453 -459z" />
<glyph unicode="&#xd8;" horiz-adv-x="1505" d="M276 -47h-183l159 244q-102 143 -130.5 292.5t-28.5 305.5q0 369 183 586t482 217q208 0 374 -127l89 127h191l-165 -241q98 -134 131.5 -275.5t33.5 -310.5q0 -278 -84 -451.5t-230.5 -270t-343.5 -96.5q-226 0 -390 128zM375 373l657 952q-90 82 -165 100t-125 18 q-207 0 -327.5 -180.5t-120.5 -475.5q0 -88 13 -185.5t68 -228.5zM1125 1182l-657 -951q117 -122 283 -122q215 0 333 183.5t118 488.5q0 231 -77 401z" />
<glyph unicode="&#xd9;" d="M124 1552h202v-998q0 -218 42.5 -292.5t132.5 -113.5t201 -39q107 0 189.5 39t123 123.5t40.5 353.5v927h186v-979q0 -272 -62.5 -382t-180.5 -174t-297 -64q-166 0 -304 51t-205.5 158.5t-67.5 364.5v1025zM1001 1722h-240l-396 202h326z" />
<glyph unicode="&#xda;" d="M124 1552h202v-998q0 -218 42.5 -292.5t132.5 -113.5t201 -39q107 0 189.5 39t123 123.5t40.5 353.5v927h186v-979q0 -272 -62.5 -382t-180.5 -174t-297 -64q-166 0 -304 51t-205.5 158.5t-67.5 364.5v1025zM312 1722l311 202h326l-396 -202h-241z" />
<glyph unicode="&#xdb;" d="M124 1552h202v-998q0 -218 42.5 -292.5t132.5 -113.5t201 -39q107 0 189.5 39t123 123.5t40.5 353.5v927h186v-979q0 -272 -62.5 -382t-180.5 -174t-297 -64q-166 0 -304 51t-205.5 158.5t-67.5 364.5v1025zM682 1784l-139 -62h-217l294 202h124l295 -202h-217z" />
<glyph unicode="&#xdc;" d="M124 1552h202v-998q0 -218 42.5 -292.5t132.5 -113.5t201 -39q107 0 189.5 39t123 123.5t40.5 353.5v927h186v-979q0 -272 -62.5 -382t-180.5 -174t-297 -64q-166 0 -304 51t-205.5 158.5t-67.5 364.5v1025zM373 1722v186h186v-186h-186zM807 1722v186h187v-186h-187z " />
<glyph unicode="&#xdd;" horiz-adv-x="1249" d="M404 1722l311 202h326l-396 -202h-241zM727 0h-201v731l-503 821h235l388 -627l383 627h196l-498 -821v-731z" />
<glyph unicode="&#xde;" horiz-adv-x="1195" d="M349 0h-202v1552h202v-280h230q247 0 348.5 -50.5t153 -147.5t51.5 -227q0 -217 -148.5 -365t-442.5 -148h-192v-334zM349 489h136q268 0 353 103t85 246q0 125 -68.5 202t-271.5 77h-234v-628z" />
<glyph unicode="&#xdf;" horiz-adv-x="1210" d="M147 0v1149q0 177 50 271t138.5 144t217.5 50q155 0 266.5 -67t111.5 -200q0 -75 -38 -138.5t-98 -126.5l-45 -47q-83 -87 -83 -130q0 -61 126 -155l42 -31l56 -43l77 -60q180 -148 180 -318q0 -139 -95 -234t-275 -95q-146 0 -259 42v173q89 -39 167 -49.5t106 -10.5 q61 0 111.5 38.5t50.5 111.5q0 59 -36.5 114.5t-170.5 159.5l-56 44q-22 17 -43 33q-119 90 -147 139.5t-28 101.5q0 84 88 183q23 26 29 33l54 63q93 110 93 181q0 51 -55 92t-134 41q-90 0 -152.5 -56.5t-62.5 -235.5v-1167h-186z" />
<glyph unicode="&#xe0;" horiz-adv-x="1132" d="M836 0q-29 90 -29 155q-122 -121 -208.5 -153.5t-165.5 -32.5q-133 0 -228.5 81.5t-95.5 224.5q0 162 134.5 250t463.5 152l100 19v126q0 103 -69 144.5t-166 41.5q-116 0 -181 -51t-65 -119v-16h-202v15q0 74 62.5 153t166 119t226.5 40q122 0 222 -38t146 -102.5 t46 -242.5v-434q0 -71 4 -149q3 -79 35 -183h-196zM807 564l-56 -14q-283 -69 -362 -131t-79 -148q0 -44 23.5 -82t69.5 -59t91 -21q78 0 153.5 45.5t117.5 121.5t42 177v111zM826 1288h-170l-342 326h216z" />
<glyph unicode="&#xe1;" horiz-adv-x="1132" d="M836 0q-29 90 -29 155q-122 -121 -208.5 -153.5t-165.5 -32.5q-133 0 -228.5 81.5t-95.5 224.5q0 162 134.5 250t463.5 152l100 19v126q0 103 -69 144.5t-166 41.5q-116 0 -181 -51t-65 -119v-16h-202v15q0 74 62.5 153t166 119t226.5 40q122 0 222 -38t146 -102.5 t46 -242.5v-434q0 -71 4 -149q3 -79 35 -183h-196zM807 564l-56 -14q-283 -69 -362 -131t-79 -148q0 -44 23.5 -82t69.5 -59t91 -21q78 0 153.5 45.5t117.5 121.5t42 177v111zM345 1288l296 326h216l-342 -326h-170z" />
<glyph unicode="&#xe2;" horiz-adv-x="1133" d="M836 0q-29 90 -29 155q-122 -121 -208.5 -153.5t-165.5 -32.5q-133 0 -228.5 81.5t-95.5 224.5q0 162 134.5 250t463.5 152l100 19v126q0 103 -69 144.5t-166 41.5q-116 0 -181 -51t-65 -119v-16h-202v15q0 74 62.5 153t166 119t226.5 40q122 0 222 -38t146 -102.5 t46 -242.5v-434q0 -71 4 -149q3 -79 35 -183h-196zM807 564l-56 -14q-283 -69 -362 -131t-79 -148q0 -44 23.5 -82t69.5 -59t91 -21q78 0 153.5 45.5t117.5 121.5t42 177v111zM587 1456l-140 -168h-155l233 326h124l233 -326h-156z" />
<glyph unicode="&#xe3;" horiz-adv-x="1132" d="M836 0q-29 90 -29 155q-122 -121 -208.5 -153.5t-165.5 -32.5q-133 0 -228.5 81.5t-95.5 224.5q0 162 134.5 250t463.5 152l100 19v126q0 103 -69 144.5t-166 41.5q-116 0 -181 -51t-65 -119v-16h-202v15q0 74 62.5 153t166 119t226.5 40q122 0 222 -38t146 -102.5 t46 -242.5v-434q0 -71 4 -149q3 -79 35 -183h-196zM807 564l-56 -14q-283 -69 -362 -131t-79 -148q0 -44 23.5 -82t69.5 -59t91 -21q78 0 153.5 45.5t117.5 121.5t42 177v111zM369 1288h-125q0 132 51.5 194t129.5 62q62 0 126 -40l42 -25q83 -52 116 -52q60 0 60 117h127 q-6 -102 -27 -149t-64.5 -77.5t-95.5 -30.5q-68 0 -141 49l-44 29q-59 39 -84 39q-71 0 -71 -116z" />
<glyph unicode="&#xe4;" horiz-adv-x="1132" d="M836 0q-29 90 -29 155q-122 -121 -208.5 -153.5t-165.5 -32.5q-133 0 -228.5 81.5t-95.5 224.5q0 162 134.5 250t463.5 152l100 19v126q0 103 -69 144.5t-166 41.5q-116 0 -181 -51t-65 -119v-16h-202v15q0 74 62.5 153t166 119t226.5 40q122 0 222 -38t146 -102.5 t46 -242.5v-434q0 -71 4 -149q3 -79 35 -183h-196zM807 564l-56 -14q-283 -69 -362 -131t-79 -148q0 -44 23.5 -82t69.5 -59t91 -21q78 0 153.5 45.5t117.5 121.5t42 177v111zM260 1288v186h186v-186h-186zM694 1288v186h187v-186h-187z" />
<glyph unicode="&#xe5;" horiz-adv-x="1132" d="M836 0q-29 90 -29 155q-122 -121 -208.5 -153.5t-165.5 -32.5q-133 0 -228.5 81.5t-95.5 224.5q0 162 134.5 250t463.5 152l100 19v126q0 103 -69 144.5t-166 41.5q-116 0 -181 -51t-65 -119v-16h-202v15q0 74 62.5 153t166 119t226.5 40q122 0 222 -38t146 -102.5 t46 -242.5v-434q0 -71 4 -149q3 -79 35 -183h-196zM807 564l-56 -14q-283 -69 -362 -131t-79 -148q0 -44 23.5 -82t69.5 -59t91 -21q78 0 153.5 45.5t117.5 121.5t42 177v111zM570 1381q39 0 66 27.5t27 65.5t-27 65.5t-66 27.5q-38 0 -65.5 -27.5t-27.5 -65.5t27.5 -65.5 t65.5 -27.5zM570 1288q-78 0 -132 56t-54 130q0 75 54.5 130.5t131.5 55.5q78 0 132 -55.5t54 -130.5q0 -74 -54 -130t-132 -56z" />
<glyph unicode="&#xe6;" horiz-adv-x="1901" d="M962 943q46 83 98.5 122t125.5 61t153 22q197 0 325 -130.5t128 -420.5v-62h-792l-1 -35q0 -140 97.5 -258t266.5 -118q128 0 181.5 55t53.5 98v10h194v-10q0 -73 -61.5 -150.5t-163 -117.5t-214.5 -40q-123 0 -244 51.5t-196 213.5q-101 -145 -215 -205t-248 -60 q-157 0 -249 85.5t-92 220.5q0 92 45.5 161t158 123.5t398.5 115.5l119 25v46q0 158 -71.5 210.5t-180.5 52.5q-122 0 -187 -51.5t-65 -119.5v-16h-201v14q0 75 61.5 151t166 118.5t219.5 42.5q109 0 214.5 -39.5t175.5 -165.5zM830 566l-70 -18q-231 -60 -303.5 -96 t-105.5 -83t-33 -99q0 -81 61.5 -121t130.5 -40q76 0 156.5 51.5t122 147t41.5 208.5v50zM1012 675h602v24q0 67 -39 145t-107.5 113.5t-147.5 35.5q-110 0 -198 -88.5t-110 -229.5z" />
<glyph unicode="&#xe7;" horiz-adv-x="1117" d="M587 -131q107 -21 140 -65.5t33 -92.5q0 -55 -44 -100.5t-138 -45.5q-83 0 -159 28v89q58 -31 119 -31q35 0 63 21t28 44q0 68 -186 87l93 168q-218 33 -330.5 170.5t-112.5 401.5q0 299 136 452t378 153q129 0 220.5 -40.5t148 -116.5t56.5 -151v-10h-187v10 q0 61 -57.5 107t-170.5 46q-140 0 -235 -103t-95 -331q0 -229 95 -332t235 -103q113 0 170.5 46t57.5 107v10h186v-10q0 -72 -50.5 -143t-132 -113t-203.5 -50z" />
<glyph unicode="&#xe8;" horiz-adv-x="1180" d="M891 287h186v-10q0 -74 -59 -151t-156 -117t-223 -40q-255 0 -393.5 165t-138.5 417q0 258 146.5 427.5t377.5 169.5q127 0 230 -55t163 -171.5t60 -324.5v-62h-793q0 -179 96.5 -295t267.5 -116q123 0 179.5 47.5t56.5 105.5v10zM303 675h603v22q0 78 -37.5 151.5 t-103.5 109t-154 35.5q-104 0 -192 -83.5t-116 -234.5zM855 1288h-170l-342 326h216z" />
<glyph unicode="&#xe9;" horiz-adv-x="1179" d="M891 287h186v-10q0 -74 -59 -151t-156 -117t-223 -40q-255 0 -393.5 165t-138.5 417q0 258 146.5 427.5t377.5 169.5q127 0 230 -55t163 -171.5t60 -324.5v-62h-793q0 -179 96.5 -295t267.5 -116q123 0 179.5 47.5t56.5 105.5v10zM303 675h603v22q0 78 -37.5 151.5 t-103.5 109t-154 35.5q-104 0 -192 -83.5t-116 -234.5zM373 1288l296 326h216l-342 -326h-170z" />
<glyph unicode="&#xea;" horiz-adv-x="1179" d="M891 287h186v-10q0 -74 -59 -151t-156 -117t-223 -40q-255 0 -393.5 165t-138.5 417q0 258 146.5 427.5t377.5 169.5q127 0 230 -55t163 -171.5t60 -324.5v-62h-793q0 -179 96.5 -295t267.5 -116q123 0 179.5 47.5t56.5 105.5v10zM303 675h603v22q0 78 -37.5 151.5 t-103.5 109t-154 35.5q-104 0 -192 -83.5t-116 -234.5zM599 1456l-140 -168h-155l233 326h124l233 -326h-156z" />
<glyph unicode="&#xeb;" horiz-adv-x="1179" d="M891 287h186v-10q0 -74 -59 -151t-156 -117t-223 -40q-255 0 -393.5 165t-138.5 417q0 258 146.5 427.5t377.5 169.5q127 0 230 -55t163 -171.5t60 -324.5v-62h-793q0 -179 96.5 -295t267.5 -116q123 0 179.5 47.5t56.5 105.5v10zM303 675h603v22q0 78 -37.5 151.5 t-103.5 109t-154 35.5q-104 0 -192 -83.5t-116 -234.5zM289 1288v186h186v-186h-186zM723 1288v186h187v-186h-187z" />
<glyph unicode="&#xec;" horiz-adv-x="481" d="M147 1117h186v-1117h-186v1117zM496 1288h-170l-342 326h216z" />
<glyph unicode="&#xed;" horiz-adv-x="481" d="M147 1117h186v-1117h-186v1117zM-16 1288l296 326h216l-342 -326h-170z" />
<glyph unicode="&#xee;" horiz-adv-x="480" d="M147 1117h186v-1117h-186v1117zM240 1456l-140 -168h-155l233 326h124l233 -326h-156z" />
<glyph unicode="&#xef;" horiz-adv-x="480" d="M147 1117h186v-1117h-186v1117zM-70 1288v186h186v-186h-186zM364 1288v186h187v-186h-187z" />
<glyph unicode="&#xf0;" horiz-adv-x="1218" d="M877 991q-38 97 -96.5 180t-179.5 173l-225 -204l-103 117l181 161q-128 40 -266 40h-25v156h34q119 0 211 -11t193 -54l215 195l103 -116l-178 -160q150 -121 229.5 -247.5t121 -288t41.5 -319.5q0 -294 -138 -469t-392 -175q-237 0 -381 158.5t-144 408.5q0 167 66 290 t188 191.5t256 68.5q56 0 119 -13.5t170 -81.5zM606 124q147 0 240 113.5t93 290.5q0 176 -93 289.5t-240 113.5q-148 0 -241 -113.5t-93 -289.5q0 -177 93 -290.5t241 -113.5z" />
<glyph unicode="&#xf1;" horiz-adv-x="1196" d="M333 0h-186v1117h186v-193q59 91 114.5 135t116 66.5t134.5 22.5q105 0 188.5 -43t129.5 -126.5t46 -267.5v-711h-186v631q0 150 -20 212.5t-78 98t-126 35.5q-82 0 -156 -48t-118.5 -134t-44.5 -246v-549zM404 1288h-125q0 132 51.5 194t129.5 62q62 0 126 -40l42 -25 q83 -52 116 -52q60 0 60 117h127q-6 -102 -27 -149t-64.5 -77.5t-95.5 -30.5q-68 0 -141 49l-44 29q-59 39 -84 39q-71 0 -71 -116z" />
<glyph unicode="&#xf2;" horiz-adv-x="1240" d="M621 -31q-219 0 -373.5 148.5t-154.5 441.5q0 292 154.5 440.5t373.5 148.5q218 0 372.5 -148.5t154.5 -440.5q0 -293 -154.5 -441.5t-372.5 -148.5zM621 124q150 0 241.5 119.5t91.5 315.5q0 195 -91.5 314.5t-241.5 119.5q-151 0 -242.5 -119.5t-91.5 -314.5 q0 -196 91.5 -315.5t242.5 -119.5zM875 1288h-170l-342 326h216z" />
<glyph unicode="&#xf3;" horiz-adv-x="1241" d="M621 -31q-219 0 -373.5 148.5t-154.5 441.5q0 292 154.5 440.5t373.5 148.5q218 0 372.5 -148.5t154.5 -440.5q0 -293 -154.5 -441.5t-372.5 -148.5zM621 124q150 0 241.5 119.5t91.5 315.5q0 195 -91.5 314.5t-241.5 119.5q-151 0 -242.5 -119.5t-91.5 -314.5 q0 -196 91.5 -315.5t242.5 -119.5zM396 1288l296 326h216l-342 -326h-170z" />
<glyph unicode="&#xf4;" horiz-adv-x="1241" d="M621 -31q-219 0 -373.5 148.5t-154.5 441.5q0 292 154.5 440.5t373.5 148.5q218 0 372.5 -148.5t154.5 -440.5q0 -293 -154.5 -441.5t-372.5 -148.5zM621 124q150 0 241.5 119.5t91.5 315.5q0 195 -91.5 314.5t-241.5 119.5q-151 0 -242.5 -119.5t-91.5 -314.5 q0 -196 91.5 -315.5t242.5 -119.5zM621 1456l-140 -168h-155l233 326h124l233 -326h-156z" />
<glyph unicode="&#xf5;" horiz-adv-x="1241" d="M621 -31q-219 0 -373.5 148.5t-154.5 441.5q0 292 154.5 440.5t373.5 148.5q218 0 372.5 -148.5t154.5 -440.5q0 -293 -154.5 -441.5t-372.5 -148.5zM621 124q150 0 241.5 119.5t91.5 315.5q0 195 -91.5 314.5t-241.5 119.5q-151 0 -242.5 -119.5t-91.5 -314.5 q0 -196 91.5 -315.5t242.5 -119.5zM420 1288h-125q0 132 51.5 194t129.5 62q62 0 126 -40l42 -25q83 -52 116 -52q60 0 60 117h127q-6 -102 -27 -149t-64.5 -77.5t-95.5 -30.5q-68 0 -141 49l-44 29q-59 39 -84 39q-71 0 -71 -116z" />
<glyph unicode="&#xf6;" horiz-adv-x="1241" d="M621 -31q-219 0 -373.5 148.5t-154.5 441.5q0 292 154.5 440.5t373.5 148.5q218 0 372.5 -148.5t154.5 -440.5q0 -293 -154.5 -441.5t-372.5 -148.5zM621 124q150 0 241.5 119.5t91.5 315.5q0 195 -91.5 314.5t-241.5 119.5q-151 0 -242.5 -119.5t-91.5 -314.5 q0 -196 91.5 -315.5t242.5 -119.5zM311 1288v186h186v-186h-186zM745 1288v186h187v-186h-187z" />
<glyph unicode="&#xf7;" d="M1241 636v-155h-1117v155h1117zM780 977v-186h-187v186h187zM780 318v-178h-187v178h187z" />
<glyph unicode="&#xf8;" horiz-adv-x="1241" d="M271 -31h-178l132 173q-85 107 -108.5 208t-23.5 214q0 288 155.5 436t373.5 148q157 0 292 -84l62 84h172l-129 -177q77 -97 103 -199t26 -216q0 -297 -158.5 -442t-364.5 -145q-164 0 -293 79zM342 300l469 628q-85 65 -190 65q-152 0 -243 -121t-91 -311 q0 -148 55 -261zM901 813l-468 -626q83 -63 188 -63q151 0 242 120.5t91 311.5q0 145 -53 257z" />
<glyph unicode="&#xf9;" horiz-adv-x="1196" d="M861 1117h186v-1117h-186v195q-58 -90 -114 -135t-115 -68t-129 -23q-155 0 -263 87.5t-108 352.5v708h186v-630q0 -245 65 -296t161 -51q83 0 156.5 48.5t117 136t43.5 243.5v549zM814 1288h-170l-342 326h216z" />
<glyph unicode="&#xfa;" horiz-adv-x="1195" d="M861 1117h186v-1117h-186v195q-58 -90 -114 -135t-115 -68t-129 -23q-155 0 -263 87.5t-108 352.5v708h186v-630q0 -245 65 -296t161 -51q83 0 156.5 48.5t117 136t43.5 243.5v549zM363 1288l296 326h216l-342 -326h-170z" />
<glyph unicode="&#xfb;" horiz-adv-x="1195" d="M861 1117h186v-1117h-186v195q-58 -90 -114 -135t-115 -68t-129 -23q-155 0 -263 87.5t-108 352.5v708h186v-630q0 -245 65 -296t161 -51q83 0 156.5 48.5t117 136t43.5 243.5v549zM589 1456l-140 -168h-155l233 326h124l233 -326h-156z" />
<glyph unicode="&#xfc;" horiz-adv-x="1195" d="M861 1117h186v-1117h-186v195q-58 -90 -114 -135t-115 -68t-129 -23q-155 0 -263 87.5t-108 352.5v708h186v-630q0 -245 65 -296t161 -51q83 0 156.5 48.5t117 136t43.5 243.5v549zM279 1288v186h186v-186h-186zM713 1288v186h187v-186h-187z" />
<glyph unicode="&#xfd;" horiz-adv-x="1171" d="M441 1288l296 326h216l-342 -326h-170zM511 48l-480 1069h206l374 -830l350 830h187l-471 -1118q-95 -226 -159 -299.5t-135.5 -103.5t-190.5 -30h-140v155h105q77 0 135 20.5t96.5 65.5t103.5 198z" />
<glyph unicode="&#xfe;" horiz-adv-x="1233" d="M318 -434h-186v1986h186v-629q58 99 110.5 140t118.5 63t136 22q128 0 234 -69.5t164.5 -207.5t58.5 -310q0 -255 -122.5 -423.5t-343.5 -168.5q-71 0 -134.5 20.5t-112.5 61t-109 144.5v-629zM318 558q0 -190 82 -312t231 -122q136 0 226 108t90 323q0 251 -95 348.5 t-217 97.5q-88 0 -164.5 -53.5t-114.5 -159t-38 -230.5z" />
<glyph unicode="&#xff;" horiz-adv-x="1171" d="M511 48l-480 1069h206l374 -830l350 830h187l-471 -1118q-95 -226 -159 -299.5t-135.5 -103.5t-190.5 -30h-140v155h105q77 0 135 20.5t96.5 65.5t103.5 198zM295 1288v186h186v-186h-186zM729 1288v186h187v-186h-187z" />
<glyph unicode="&#x106;" horiz-adv-x="1320" d="M551 1722l311 202h326l-396 -202h-241zM1070 334h187v-10q0 -92 -63.5 -187t-172.5 -139.5t-256 -44.5q-296 0 -484 206t-188 617q0 409 187 616t486 207q146 0 255 -44.5t172.5 -141t63.5 -185.5v-10h-187v10q0 57 -35.5 109.5t-102 79t-159.5 26.5q-238 0 -354.5 -188 t-116.5 -479q0 -294 117 -481t353 -187q162 0 230 67t68 149v10z" />
<glyph unicode="&#x107;" horiz-adv-x="1118" d="M439 1288l296 326h216l-342 -326h-170zM845 287h187v-10q0 -75 -56.5 -151t-148 -116.5t-220.5 -40.5q-247 0 -380.5 156.5t-133.5 433.5q0 276 133.5 432.5t380.5 156.5q129 0 220.5 -40.5t148 -111t56.5 -156.5v-10h-187v10v6q0 57 -53 101q-57 46 -175 46 q-140 0 -235 -103t-95 -331q0 -229 95 -332t235 -103q118 0 173 46t55 107v10z" />
<glyph unicode="&#x10c;" horiz-adv-x="1320" d="M763 1862l140 62h217l-295 -202h-124l-295 202h217zM1070 334h187v-10q0 -92 -63.5 -187t-172.5 -139.5t-256 -44.5q-296 0 -484 206t-188 617q0 409 187 616t486 207q146 0 255 -44.5t172.5 -141t63.5 -185.5v-10h-187v10q0 57 -35.5 109.5t-102 79t-159.5 26.5 q-238 0 -354.5 -188t-116.5 -479q0 -294 117 -481t353 -187q162 0 230 67t68 149v10z" />
<glyph unicode="&#x10d;" horiz-adv-x="1118" d="M609 1446l139 168h156l-233 -326h-124l-233 326h155zM845 287h187v-10q0 -75 -56.5 -151t-148 -116.5t-220.5 -40.5q-247 0 -380.5 156.5t-133.5 433.5q0 276 133.5 432.5t380.5 156.5q129 0 220.5 -40.5t148 -111t56.5 -156.5v-10h-187v10v6q0 57 -53 101 q-57 46 -175 46q-140 0 -235 -103t-95 -331q0 -229 95 -332t235 -103q118 0 173 46t55 107v10z" />
<glyph unicode="&#x111;" horiz-adv-x="1233" d="M915 1614h186v-233h187v-155h-187v-1226h-186v194q-68 -106 -116.5 -145.5t-116 -59.5t-133.5 -20q-126 0 -232 69.5t-165 207.5t-59 310q0 255 123 423.5t343 168.5q72 0 135 -20.5t112.5 -61t108.5 -144.5v304h-279v155h279v233zM915 559q0 190 -82 312t-230 122 q-136 0 -226 -108t-90 -323q0 -251 95 -348.5t216 -97.5q89 0 165.5 54t114 159t37.5 230z" />
<glyph unicode="&#x11e;" horiz-adv-x="1381" d="M1113 1924q-52 -96 -139.5 -149t-193.5 -53q-107 0 -194.5 53t-139.5 149h178q40 -49 75 -59.5t81 -10.5q45 0 80 10.5t75 59.5h178zM1257 71q-247 -118 -471 -118q-233 0 -377 92.5t-230 266.5t-86 446q0 307 81.5 477t229.5 266.5t351 96.5q139 0 253 -44t181.5 -133.5 t67.5 -177.5v-10h-187v10q0 54 -41.5 100.5t-109 73t-153.5 26.5q-226 0 -345 -177t-119 -488q0 -310 122 -490t344 -180q130 0 302 62v443h-349v155h536v-697z" />
<glyph unicode="&#x11f;" horiz-adv-x="1249" d="M461 1614q9 -77 58 -135.5t110 -58.5t109 59.5t57 134.5h128q-12 -111 -56.5 -179.5t-107.5 -107.5t-130 -39t-130.5 39t-108 107.5t-57.5 179.5h128zM915 236q-57 -118 -148 -177t-216 -59q-199 0 -328.5 156.5t-129.5 411.5q0 168 58 306t163 206t246 68 q105 0 188 -41.5t167 -168.5v179h186v-913q0 -344 -72 -454t-182.5 -163t-259.5 -53q-138 0 -247.5 41t-166.5 112.5t-57 148.5v17h186v-16q0 -74 80 -118.5t203 -44.5q100 0 171.5 34.5t115 112t43.5 281.5v134zM915 592q0 179 -92 290t-220 111q-136 0 -226 -112t-90 -315 q0 -128 36 -224t112.5 -145.5t163.5 -49.5q141 0 228.5 124.5t87.5 320.5z" />
<glyph unicode="&#x130;" horiz-adv-x="495" d="M147 1722v202h202v-202h-202zM349 0h-202v1552h202v-1552z" />
<glyph unicode="&#x131;" horiz-adv-x="481" d="M147 1117h186v-1117h-186v1117z" />
<glyph unicode="&#x141;" horiz-adv-x="1195" d="M147 0l1 696l-187 -69v164l186 69v692h202v-614l186 66v-165l-186 -66v-602h814v-171h-1016z" />
<glyph unicode="&#x142;" horiz-adv-x="481" d="M333 0h-186v697l-186 -75v167l186 73v752h186v-681l187 69v-167l-187 -68v-767z" />
<glyph unicode="&#x152;" horiz-adv-x="2234" d="M1205 0v171q-103 -132 -209 -175t-231 -43q-309 0 -490.5 216.5t-181.5 606.5q0 389 181 605.5t492 216.5q130 0 234 -46t205 -171v171h876v-171h-675v-489h590v-155h-590v-566h727v-171h-928zM753 109q211 0 332.5 182.5t121.5 484.5q0 301 -121.5 484t-332.5 183 q-212 0 -331.5 -183t-119.5 -484q0 -302 119.5 -484.5t331.5 -182.5z" />
<glyph unicode="&#x153;" horiz-adv-x="2040" d="M1053 930q92 119 196 168.5t227 49.5q129 0 231.5 -54t163.5 -171.5t61 -325.5v-62h-791q0 -179 96.5 -295t267.5 -116q123 0 179 54t56 99v10h187v-10q0 -75 -59.5 -151.5t-157.5 -116.5t-214 -40q-297 0 -444 225q-65 -112 -184 -168.5t-249 -56.5q-211 0 -368.5 145.5 t-157.5 444.5t158 444t367 145q122 0 237 -49.5t198 -168.5zM621 124q150 0 241.5 119.5t91.5 315.5q0 195 -91.5 314.5t-241.5 119.5q-151 0 -242.5 -119.5t-91.5 -314.5q0 -196 91.5 -315.5t242.5 -119.5zM1155 675h603v22q0 66 -38 145.5t-110 117.5q-65 34 -130 34 q-8 0 -17 -1q-104 0 -192 -83.5t-116 -234.5z" />
<glyph unicode="&#x15e;" horiz-adv-x="1241" d="M571 -45q-258 17 -360 118.5t-102 256.5v19h202v-18q0 -121 101 -171.5t232 -50.5q132 0 221.5 77t89.5 203q0 102 -77 166.5t-234 128.5l-81 33q-165 68 -246.5 134.5t-121.5 147.5t-40 181q0 176 124.5 297t389.5 121q243 0 342 -90t99 -204v-16h-202v14q0 34 -30.5 71 t-91.5 53.5t-134 16.5q-146 0 -216.5 -74.5t-70.5 -169.5q0 -64 33 -120.5t91 -93.5t199 -99l95 -41q229 -100 305 -209.5t76 -231.5q0 -151 -109 -291.5t-376 -158.5l-47 -85q107 -21 140 -65.5t33 -92.5q0 -55 -44 -100.5t-138 -45.5q-83 0 -159 28v89q58 -31 119 -31 q35 0 62.5 21t27.5 44q0 68 -185 87z" />
<glyph unicode="&#x15f;" horiz-adv-x="1040" d="M520 -131q107 -21 140.5 -65.5t33.5 -92.5q0 -55 -44.5 -100.5t-138.5 -45.5q-83 0 -159 28v89q58 -31 119 -31q35 0 63 21t28 44q0 68 -186 87l93 167q-212 19 -301.5 101.5t-89.5 182.5v18h186v-16q0 -66 61 -99t182 -33q135 0 194.5 51t59.5 113q0 53 -35 90t-185 96 l-100 40q-201 80 -270.5 147t-69.5 177q0 153 115 231.5t301 78.5q118 0 214 -31.5t144.5 -95.5t48.5 -123v-14h-187v16q0 38 -52 65.5t-165 27.5q-112 0 -168.5 -32t-56.5 -97q0 -45 32 -78.5t111 -66.5l69 -28l123 -50l61 -25q148 -58 202 -134.5t54 -172.5 q0 -123 -83.5 -217t-286.5 -120z" />
<glyph unicode="&#x160;" horiz-adv-x="1241" d="M583 1862l140 62h217l-295 -202h-124l-295 202h217zM109 349h202v-10q0 -129 91 -179.5t242 -50.5q132 0 221.5 77t89.5 203q0 102 -77 166.5t-234 128.5l-81 33q-165 68 -246.5 134.5t-121.5 147.5t-40 181q0 176 124.5 297t389.5 121q243 0 342 -90t99 -210v-10h-202 v10q0 38 -30.5 75t-91.5 53.5t-134 16.5q-149 0 -220.5 -74.5t-71.5 -169.5q0 -64 34 -120.5t93.5 -93.5t200.5 -99l95 -41q228 -99 304.5 -208t76.5 -235q0 -117 -62 -226.5t-172 -166t-293 -56.5q-174 0 -290.5 41.5t-177 136.5t-60.5 208v10z" />
<glyph unicode="&#x161;" horiz-adv-x="1042" d="M515 1446l139 168h156l-233 -326h-124l-233 326h155zM78 295h186v-4q0 -72 55 -119.5t186 -47.5q115 0 186.5 56t71.5 132q0 103 -140 146l-95 29l-63 20l-129 40q-221 81 -221 269q0 132 107 232t318 100q208 0 296 -85.5t88 -189.5v-4h-187v4q0 56 -56.5 88t-150.5 32 q-112 0 -171.5 -46.5t-59.5 -114.5q0 -52 38.5 -84.5t129.5 -58.5l90 -25l65 -19q136 -39 169.5 -55t67.5 -41q47 -36 69.5 -87t22.5 -119q0 -158 -113.5 -266t-331.5 -108q-138 0 -229 41t-145 113.5t-54 167.5v4z" />
<glyph unicode="&#x178;" horiz-adv-x="1249" d="M727 0h-201v731l-503 821h235l388 -627l383 627h196l-498 -821v-731zM303 1722v186h186v-186h-186zM737 1722v186h187v-186h-187z" />
<glyph unicode="&#x17d;" horiz-adv-x="1179" d="M614 1862l140 62h217l-295 -202h-124l-295 202h217zM1086 186v-186h-1008v186l771 1195h-717v171h939v-171l-767 -1195h782z" />
<glyph unicode="&#x17e;" horiz-adv-x="1132" d="M570 1446l139 168h156l-233 -326h-124l-233 326h155zM1024 155v-155h-908v155l663 807h-647v155h868v-155l-651 -807h675z" />
<glyph unicode="&#x192;" d="M460 -372h-188l253 1256h-163l31 156h163l26 129q88 445 459 445q61 0 154 -14l-30 -152q-77 10 -121 10q-94 0 -165 -44.5t-104 -209.5l-33 -164h326l-31 -156h-326z" />
<glyph unicode="&#x2c6;" horiz-adv-x="1210" d="M605 1456l-140 -168h-155l233 326h124l233 -326h-156z" />
<glyph unicode="&#x2c7;" horiz-adv-x="1210" d="M605 1446l139 168h156l-233 -326h-124l-233 326h155z" />
<glyph unicode="&#x2d8;" horiz-adv-x="1210" d="M438 1614q9 -77 58 -135.5t110 -58.5t109 59.5t57 134.5h128q-12 -111 -56.5 -179.5t-107.5 -107.5t-130 -39t-130.5 39t-108 107.5t-57.5 179.5h128z" />
<glyph unicode="&#x2d9;" horiz-adv-x="1210" d="M512 1288v186h186v-186h-186z" />
<glyph unicode="&#x2da;" horiz-adv-x="1210" d="M605 1381q39 0 66 27.5t27 65.5t-27 65.5t-66 27.5q-38 0 -65.5 -27.5t-27.5 -65.5t27.5 -65.5t65.5 -27.5zM605 1288q-78 0 -132 56t-54 130q0 75 54.5 130.5t131.5 55.5q78 0 132 -55.5t54 -130.5q0 -74 -54 -130t-132 -56z" />
<glyph unicode="&#x2db;" horiz-adv-x="1210" d="M775 0q-90 -42 -145.5 -117t-55.5 -123q0 -31 28 -59t93 -28q35 0 80 19v-97q-66 -29 -127 -29q-93 0 -153.5 50t-60.5 127q0 121 148 257h193z" />
<glyph unicode="&#x2dc;" horiz-adv-x="1210" d="M404 1288h-125q0 132 51.5 194t129.5 62q62 0 126 -40l42 -25q83 -52 116 -52q60 0 60 117h127q-6 -102 -27 -149t-64.5 -77.5t-95.5 -30.5q-68 0 -141 49l-44 29q-59 39 -84 39q-71 0 -71 -116z" />
<glyph unicode="&#x2dd;" horiz-adv-x="1210" d="M519 1288h-116l142 326h123zM793 1288h-118l145 326h126z" />
<glyph unicode="&#x3c0;" horiz-adv-x="1412" d="M474 954v-954h-187v954h-25q-100 0 -215 -67v189q44 16 76.5 23t80.5 12.5t71 5.5h1060v-163h-186v-579q0 -215 73 -375h-191q-69 159 -69 370v584h-488z" />
<glyph unicode="&#x2013;" horiz-adv-x="1055" d="M62 528v155h931v-155h-931z" />
<glyph unicode="&#x2014;" horiz-adv-x="2110" d="M62 528v155h1986v-155h-1986z" />
<glyph unicode="&#x2018;" horiz-adv-x="621" d="M442 1645v-121q-48 -27 -73.5 -67.5t-38.5 -85t-13 -99.5h125v-264h-264v164q0 148 28 225.5t86.5 142.5t149.5 105z" />
<glyph unicode="&#x2019;" horiz-adv-x="621" d="M178 1008v121q48 28 73.5 68t38.5 84.5t13 99.5h-125v264h264v-164q0 -148 -28.5 -225.5t-86.5 -142.5t-149 -105z" />
<glyph unicode="&#x201a;" horiz-adv-x="621" d="M178 -372v120q48 28 73.5 68.5t38.5 84.5t13 99h-125v264h264v-164q0 -148 -28.5 -225.5t-86.5 -142.5t-149 -104z" />
<glyph unicode="&#x201c;" horiz-adv-x="1008" d="M830 1614v-121q-48 -27 -73.5 -67.5t-38.5 -85t-13 -99.5h125v-264h-264v164q0 148 28 225.5t86 142.5t150 105zM442 1614v-121q-48 -27 -73.5 -67.5t-38.5 -85t-13 -99.5h125v-264h-264v164q0 148 28 225.5t86.5 142.5t149.5 105z" />
<glyph unicode="&#x201d;" horiz-adv-x="1008" d="M178 977v121q48 28 73.5 68t38.5 84.5t13 99.5h-125v264h264v-164q0 -148 -28.5 -225.5t-86.5 -142.5t-149 -105zM566 977v121q47 28 73 68t39 84.5t13 99.5h-125v264h264v-164q0 -148 -28.5 -225.5t-86.5 -142.5t-149 -105z" />
<glyph unicode="&#x201e;" horiz-adv-x="1008" d="M178 -372v120q48 28 73.5 68.5t38.5 84.5t13 99h-125v264h264v-164q0 -148 -28.5 -225.5t-86.5 -142.5t-149 -104zM566 -372v120q47 28 73 68.5t39 84.5t13 99h-125v264h264v-164q0 -148 -28.5 -225.5t-86.5 -142.5t-149 -104z" />
<glyph unicode="&#x2020;" d="M797 -372h-226l34 1361l-357 -27v214l357 -32l-34 408h226l-34 -408l354 32v-214l-354 27z" />
<glyph unicode="&#x2021;" d="M796 -372h-224l33 409l-357 -37v224l357 -29v794l-357 -27v214l357 -32l-33 408h224l-36 -408l357 32v-214l-357 27v-794l357 29v-224l-357 37z" />
<glyph unicode="&#x2022;" d="M256 768q0 112 55 210.5t155.5 157.5t216.5 59q112 0 212 -57.5t157 -157t57 -212.5q0 -114 -57 -213.5t-156 -156.5t-213 -57q-117 0 -217 59t-155 157t-55 211z" />
<glyph unicode="&#x2026;" horiz-adv-x="2110" d="M485 0h-264v264h264v-264zM1187 0h-264v264h264v-264zM1889 0h-264v264h264v-264z" />
<glyph unicode="&#x2030;" horiz-adv-x="2684" d="M62 1086q0 214 100.5 340t248.5 126t248.5 -126t100.5 -340t-100.5 -339.5t-248.5 -125.5t-248.5 125.5t-100.5 339.5zM233 1086q0 -141 49 -233.5t129 -92.5t129.5 92.5t49.5 233.5t-49.5 233.5t-129.5 92.5t-129 -92.5t-49 -233.5zM275 0l1103 1552h177l-1086 -1552 h-194zM1094 465q0 214 100.5 340t248.5 126t248.5 -125.5t100.5 -340.5q0 -214 -100.5 -339.5t-248.5 -125.5t-248.5 125.5t-100.5 339.5zM1264 465q0 -141 49.5 -233t129.5 -92t129 92t49 233t-49 233.5t-129 92.5t-129.5 -92.5t-49.5 -233.5zM1924 465q0 214 100.5 340 t248.5 126t248.5 -125.5t100.5 -340.5q0 -214 -100.5 -339.5t-248.5 -125.5t-248.5 125.5t-100.5 339.5zM2094 465q0 -141 49.5 -233t129.5 -92t129 92t49 233t-49 233.5t-129 92.5t-129.5 -92.5t-49.5 -233.5z" />
<glyph unicode="&#x2039;" horiz-adv-x="659" d="M276 555l305 -431h-170l-326 357v155l335 357h161z" />
<glyph unicode="&#x203a;" horiz-adv-x="659" d="M384 562l-306 431h170l326 -357v-155l-334 -357h-162z" />
<glyph unicode="&#x2044;" horiz-adv-x="209" d="M-574 -47l1181 1645h177l-1160 -1645h-198z" />
<glyph unicode="&#x20a3;" d="M333 0v264h-248v155h248v1133h877v-171h-691v-535h606v-156h-606v-271h342v-155h-342v-264h-186z" />
<glyph unicode="&#x2122;" horiz-adv-x="1552" d="M338 776v670h-253v106h631v-106h-250v-670h-128zM915 776h-113v776h122l217 -508l202 508h123v-776h-121v496l-152 -385h-118l-160 379v-490z" />
<glyph unicode="&#x2126;" horiz-adv-x="1645" d="M637 0h-528v171h326q-173 162 -230.5 323t-57.5 316q0 216 87.5 410.5t236.5 286t352 91.5q201 0 352 -93.5t237 -285.5t86 -409q0 -155 -57 -316t-230 -323h325v-171h-527v171q126 99 202.5 271.5t76.5 353.5q0 179 -62.5 341.5t-166.5 234t-236 71.5q-133 0 -237.5 -73 t-166.5 -233t-62 -341t76.5 -353.5t203.5 -271.5v-171z" />
<glyph unicode="&#x2202;" horiz-adv-x="1334" d="M960 1062q-39 195 -181.5 295.5t-370.5 100.5h-28v156h21q257 0 439 -103t280 -305.5t98 -439.5q0 -223 -90 -411t-237 -287t-321 -99q-132 0 -238.5 56.5t-161 160t-54.5 220.5q0 174 91.5 343t237 264.5t312.5 95.5q97 0 203 -47zM580 124q108 0 211 71t168 214.5 t65 292.5q0 127 -77.5 189.5t-192.5 62.5q-112 0 -216 -73t-166 -199.5t-62 -252.5q0 -136 76.5 -220.5t193.5 -84.5z" />
<glyph unicode="&#x2206;" horiz-adv-x="1552" d="M62 0v186l602 1366h206l619 -1366v-186h-1427zM232 186h1031l-519 1159z" />
<glyph unicode="&#x220f;" horiz-adv-x="1645" d="M466 -372h-202v1768h-186v156h1489v-156h-186v-1768h-201v1768h-714v-1768z" />
<glyph unicode="&#x2211;" horiz-adv-x="1241" d="M1179 -372h-1117v171l530 862l-483 735v156h1039v-156h-794l461 -703l-554 -894h918v-171z" />
<glyph unicode="&#x2212;" d="M1241 636v-155h-1117v155h1117z" />
<glyph unicode="&#x2219;" d="M551 427v263h264v-263h-264z" />
<glyph unicode="&#x221a;" horiz-adv-x="1839" d="M185 437l-76 132l361 210l515 -953l633 1819h167l-704 -2017h-201l-498 919z" />
<glyph unicode="&#x221e;" d="M683 442q-54 -95 -137.5 -164t-198.5 -69q-145 0 -215 109.5t-70 229.5q0 95 38 183.5t102.5 132.5t144.5 44q122 0 241 -133l69 -77l26 -28q86 138 168.5 188t164.5 50q122 0 204.5 -101t82.5 -244q0 -145 -80 -253.5t-202 -108.5t-247 140l-61 69zM589 538l-16 22 q-15 21 -92.5 99t-142.5 78q-61 0 -101 -56.5t-40 -141.5q0 -90 44 -144t108 -54q112 0 240 197zM774 578l13 -19q25 -37 101 -112t138 -75q52 0 93 62t41 138q0 84 -43 140t-108 56q-112 0 -235 -190z" />
<glyph unicode="&#x222b;" horiz-adv-x="1071" d="M262 -231q14 -9 29 -9q77 0 114.5 103t37.5 423v470q0 530 108.5 686t249.5 156q81 0 136.5 -49.5t55.5 -122.5q0 -70 -37.5 -100t-72.5 -30q-34 0 -66.5 24t-32.5 68q0 17 6 33t18 32q-18 5 -30 5q-40 0 -74.5 -35.5t-54.5 -120.5t-20 -418v-496q0 -438 -105 -599 t-257 -161q-86 0 -137.5 48t-51.5 123q0 51 33 87t78 36q38 0 68 -25t30 -62q0 -17 -6 -33.5t-19 -32.5z" />
<glyph unicode="&#x2248;" d="M124 209v18q0 131 77.5 227.5t208.5 96.5q33 0 64.5 -6.5t71.5 -22t120 -59.5l121 -68q111 -61 181 -61q74 0 109.5 53.5t35.5 116.5v16h128v-16q0 -167 -94.5 -246.5t-200.5 -79.5q-99 0 -262 94l-102 58q-116 66 -187 66q-40 0 -74.5 -21t-55.5 -67t-21 -81v-18h-120z M124 597v18q0 131 77.5 227.5t208.5 96.5q33 0 64.5 -6.5t71.5 -22t120 -60.5l121 -67q111 -62 181 -62q74 0 109.5 54t35.5 117v16h128v-16q0 -167 -94.5 -246.5t-200.5 -79.5q-99 0 -262 93l-102 59q-116 66 -187 66q-40 0 -74.5 -21t-55.5 -67t-21 -81v-18h-120z" />
<glyph unicode="&#x2260;" d="M1241 450v-140h-662l-145 -186h-198l146 186h-258v140h366l171 217h-537v132h647l147 194h197l-147 -186h273v-140h-385l-169 -217h554z" />
<glyph unicode="&#x2264;" d="M1241 1427v-173l-770 -389l770 -382v-173l-1117 555zM1241 155v-155h-1117v155h1117z" />
<glyph unicode="&#x2265;" d="M124 1427l1117 -562l-1117 -555v173l770 382l-770 389v173zM124 155h1117v-155h-1117v155z" />
<glyph unicode="&#x25ca;" d="M1241 776l-557 -776l-560 776l560 776zM1052 776l-368 506l-369 -506l369 -508z" />
<glyph unicode="&#x25fc;" horiz-adv-x="1115" d="M0 1115h1115v-1115h-1115v1115z" />
<glyph unicode="&#xf000;" horiz-adv-x="1618" d="M730 1204q45 0 147 35t177 35q123 0 219 -66q54 -38 107 -103q-80 -68 -117 -121q-67 -96 -67 -212q0 -127 71 -229t162 -129q-38 -123 -126 -257q-133 -201 -264 -201q-52 0 -143.5 33t-154.5 33t-146.5 -34.5t-135.5 -34.5q-157 0 -308 266q-151 263 -151 516 q0 235 115.5 383t291.5 148q75 0 181.5 -31t141.5 -31zM1043 1617q0 -64 -30 -140t-95 -141q-56 -55 -111 -74q-35 -11 -106 -17q2 152 79.5 263t256.5 152q4 -13 5 -23t1 -20z" />
<glyph unicode="&#xf001;" horiz-adv-x="1226" d="M419 0h-186v962h-163v155h163v52q0 243 102.5 344t267.5 101q62 0 157 -14v-152q-78 10 -125 10q-90 0 -153 -44t-63 -210v-87h659v-1117h-186v962h-473v-962z" />
<glyph unicode="&#xf002;" horiz-adv-x="1226" d="M233 1117v49q0 143 42.5 240.5t133 152.5t255.5 55q185 0 414 -36v-1578h-186v1424q-144 34 -236 34q-118 0 -177.5 -64t-59.5 -192v-85h326v-155h-326v-962h-186v962h-163v155h163z" />
<glyph horiz-adv-x="1210" d="M1062 1722h-240l-396 202h326z" />
<glyph horiz-adv-x="1210" d="M488 1722l311 202h326l-396 -202h-241z" />
<glyph horiz-adv-x="1210" d="M303 1722v186h186v-186h-186zM737 1722v186h187v-186h-187z" />
<glyph horiz-adv-x="1210" d="M752 1784l-139 -62h-217l294 202h124l295 -202h-217z" />
<glyph horiz-adv-x="1210" d="M509 1722h-123q9 68 44.5 115t74.5 67t90 20q62 0 128 -22l99 -33q61 -21 89 -21q30 0 50 13.5t36 62.5h123q-20 -108 -83.5 -155t-133.5 -47q-43 0 -133 34l-67 25l-25 9q-50 18 -80 18q-19 0 -49.5 -14.5t-39.5 -71.5z" />
<glyph horiz-adv-x="1210" d="M1113 1924q-52 -96 -139.5 -149t-193.5 -53q-107 0 -194.5 53t-139.5 149h178q40 -49 75 -59.5t81 -10.5q45 0 80 10.5t75 59.5h178z" />
<glyph horiz-adv-x="1210" d="M147 1722v202h202v-202h-202z" />
<glyph horiz-adv-x="1210" d="M749 1862l140 62h217l-295 -202h-124l-295 202h217z" />
</font>
</defs>
</svg>
